<svg width="50" height="52" viewBox="0 0 50 52" fill="none" xmlns="http://www.w3.org/2000/svg">
<path fill-rule="evenodd" clip-rule="evenodd" d="M24.7399 0.787598C31.5299 0.787598 37.6699 3.60761 42.1099 8.17761C46.5599 12.7376 49.3099 19.0476 49.3099 26.0076C49.3099 32.9676 46.5599 39.2776 42.1099 43.8376C37.6599 48.3976 31.5199 51.2276 24.7399 51.2276C17.9599 51.2276 11.8099 48.4076 7.36993 43.8376C2.91993 39.2776 0.169922 32.9676 0.169922 26.0076C0.169922 19.0476 2.91993 12.7376 7.36993 8.17761C11.8099 3.61761 17.9599 0.787598 24.7399 0.787598ZM39.9699 10.3776C36.0699 6.37759 30.6899 3.90759 24.7399 3.90759C18.7899 3.90759 13.4099 6.37759 9.51993 10.3776C5.61993 14.3776 3.20993 19.9076 3.20993 26.0076C3.20993 32.1076 5.61993 37.6376 9.51993 41.6376C13.4199 45.6376 18.7999 48.1076 24.7399 48.1076C30.6899 48.1076 36.0699 45.6276 39.9699 41.6376C43.8699 37.6376 46.2699 32.1076 46.2699 26.0076C46.2699 19.9076 43.8599 14.3776 39.9699 10.3776Z" fill="white"/>
<path fill-rule="evenodd" clip-rule="evenodd" d="M20.46 37.8177H23.4799V27.0777H32.1899V24.5477H23.4799V16.6577H32.9099V14.0876H20.46V37.8177Z" fill="white"/>
</svg>
