<svg width="50" height="52" viewBox="0 0 50 52" fill="none" xmlns="http://www.w3.org/2000/svg">
<path fill-rule="evenodd" clip-rule="evenodd" d="M24.6999 0.787598C31.4799 0.787598 37.6299 3.60761 42.0699 8.17761C46.5199 12.7376 49.2699 19.0476 49.2699 26.0076C49.2699 32.9676 46.5199 39.2776 42.0699 43.8376C37.6199 48.3976 31.4799 51.2276 24.6999 51.2276C17.9199 51.2276 11.7699 48.4076 7.3299 43.8376C2.8799 39.2776 0.129883 32.9676 0.129883 26.0076C0.129883 19.0476 2.8799 12.7376 7.3299 8.17761C11.7699 3.61761 17.9099 0.787598 24.6999 0.787598ZM39.9199 10.3776C36.0299 6.37759 30.6399 3.90759 24.6999 3.90759C18.7499 3.90759 13.3699 6.37759 9.47989 10.3776C5.57989 14.3776 3.16989 19.9076 3.16989 26.0076C3.16989 32.1076 5.57989 37.6376 9.47989 41.6376C13.3799 45.6376 18.7599 48.1076 24.6999 48.1076C30.6499 48.1076 36.0299 45.6276 39.9199 41.6376C43.8199 37.6376 46.2299 32.1076 46.2299 26.0076C46.2299 19.9076 43.8199 14.3776 39.9199 10.3776Z" fill="white"/>
<path fill-rule="evenodd" clip-rule="evenodd" d="M20.4199 37.8775H23.4099V28.3675C24.0899 28.5475 24.9199 28.5775 25.8099 28.5775C28.7299 28.5775 31.2699 27.6975 32.8799 25.9675C34.0499 24.7375 34.6599 23.0475 34.6599 20.8975C34.6599 18.7875 33.8699 17.0575 32.6399 15.9275C31.2699 14.6575 29.1099 13.9575 26.1599 13.9575C23.7599 13.9575 21.8699 14.1675 20.4299 14.4175V37.8775H20.4199ZM23.3999 16.6475C23.9099 16.5075 24.9099 16.3975 26.2099 16.3975C29.4699 16.3975 31.6699 17.9075 31.6699 21.0775C31.6699 24.2775 29.4699 26.1175 25.8699 26.1175C24.8699 26.1175 24.0499 26.0475 23.3999 25.8675V16.6475V16.6475Z" fill="white"/>
</svg>
