<svg width="50" height="52" viewBox="0 0 50 52" fill="none" xmlns="http://www.w3.org/2000/svg">
<path fill-rule="evenodd" clip-rule="evenodd" d="M24.6598 0.787598C31.4398 0.787598 37.5898 3.60761 42.0298 8.17761C46.4798 12.7376 49.2298 19.0476 49.2298 26.0076C49.2298 32.9676 46.4798 39.2776 42.0298 43.8376C37.5798 48.3976 31.4398 51.2276 24.6598 51.2276C17.8798 51.2276 11.7298 48.4076 7.28984 43.8376C2.83984 39.2776 0.0898438 32.9676 0.0898438 26.0076C0.0898438 19.0476 2.83984 12.7376 7.28984 8.17761C11.7298 3.61761 17.8698 0.787598 24.6598 0.787598ZM39.8798 10.3776C35.9798 6.37759 30.5999 3.90759 24.6499 3.90759C18.6999 3.90759 13.3198 6.37759 9.41985 10.3776C5.51985 14.3776 3.10985 19.9076 3.10985 26.0076C3.10985 32.1076 5.51985 37.6376 9.41985 41.6376C13.3198 45.6376 18.6999 48.1076 24.6499 48.1076C30.5999 48.1076 35.9798 45.6276 39.8798 41.6376C43.7698 37.6376 46.1898 32.1076 46.1898 26.0076C46.1898 19.9076 43.7798 14.3776 39.8798 10.3776Z" fill="white"/>
<path fill-rule="evenodd" clip-rule="evenodd" d="M28.6695 30.4174L31.1395 37.8875H34.3295L26.4395 14.1475H22.8695L14.9795 37.8875H18.0695L20.4695 30.4174H28.6695ZM21.0895 28.0175L23.3495 21.1475C23.8295 19.7075 24.1695 18.2274 24.5195 16.8474H24.5895C24.9295 18.2174 25.2795 19.6275 25.7895 21.1775L28.0895 28.0074H21.0895V28.0175Z" fill="white"/>
</svg>
