<svg width="50" height="52" viewBox="0 0 50 52" fill="none" xmlns="http://www.w3.org/2000/svg">
<path fill-rule="evenodd" clip-rule="evenodd" d="M24.57 0.787598C31.35 0.787598 37.5 3.60761 41.94 8.17761C46.39 12.7376 49.14 19.0476 49.14 26.0076C49.14 32.9676 46.39 39.2776 41.94 43.8376C37.49 48.3976 31.35 51.2276 24.57 51.2276C17.79 51.2276 11.64 48.4076 7.2 43.8376C2.75 39.2776 0 32.9676 0 26.0076C0 19.0476 2.75 12.7376 7.2 8.17761C11.64 3.61761 17.78 0.787598 24.57 0.787598ZM39.79 10.3776C35.89 6.37759 30.51 3.90759 24.56 3.90759C18.61 3.90759 13.23 6.37759 9.32999 10.3776C5.42999 14.3776 3.02 19.9076 3.02 26.0076C3.02 32.1076 5.42999 37.6376 9.32999 41.6376C13.23 45.6376 18.61 48.1076 24.56 48.1076C30.51 48.1076 35.89 45.6276 39.79 41.6376C43.69 37.6376 46.1 32.1076 46.1 26.0076C46.1 19.9076 43.69 14.3776 39.79 10.3776Z" fill="white"/>
</svg>
