<svg width="59" height="52" viewBox="0 0 59 52" fill="none" xmlns="http://www.w3.org/2000/svg">
<path fill-rule="evenodd" clip-rule="evenodd" d="M28.61 0.787598C35.39 0.787598 41.54 3.60761 45.98 8.17761C50.43 12.7376 53.18 19.0476 53.18 26.0076C53.18 32.9676 50.43 39.2776 45.98 43.8376C41.53 48.3976 35.39 51.2276 28.61 51.2276C21.83 51.2276 15.68 48.4076 11.24 43.8376C6.79004 39.2776 4.04004 32.9676 4.04004 26.0076C4.04004 19.0476 6.79004 12.7376 11.24 8.17761C15.68 3.61761 21.83 0.787598 28.61 0.787598ZM43.84 10.3776C39.94 6.37759 34.56 3.90759 28.61 3.90759C22.66 3.90759 17.28 6.37759 13.39 10.3776C9.49005 14.3776 7.08005 19.9076 7.08005 26.0076C7.08005 32.1076 9.49005 37.6376 13.39 41.6376C17.28 45.6376 22.67 48.1076 28.61 48.1076C34.55 48.1076 39.94 45.6276 43.84 41.6376C47.73 37.6376 50.15 32.1076 50.15 26.0076C50.14 19.9076 47.73 14.3776 43.84 10.3776Z" fill="white"/>
<path fill-rule="evenodd" clip-rule="evenodd" d="M2.31 41.2976C1.47 41.6976 0.500003 41.3976 0.140003 40.6176C-0.209997 39.8376 0.180008 38.8775 1.02001 38.4775L56.2 12.0575C57.04 11.6575 58.01 11.9575 58.37 12.7475C58.73 13.5275 58.33 14.4875 57.49 14.8875L2.31 41.2976Z" fill="white"/>
<path fill-rule="evenodd" clip-rule="evenodd" d="M56.1998 41.2976C57.0398 41.6976 58.0098 41.3976 58.3698 40.6176C58.7198 39.8376 58.3298 38.8775 57.4898 38.4775L2.31977 12.0675C1.47977 11.6675 0.509769 11.9675 0.149769 12.7575C-0.200231 13.5375 0.189774 14.4976 1.02977 14.8976L56.1998 41.2976Z" fill="white"/>
</svg>
