<svg width="64" height="42" viewBox="0 0 64 42" fill="none" xmlns="http://www.w3.org/2000/svg">
<path fill-rule="evenodd" clip-rule="evenodd" d="M19.9199 16.4675H58.9399H60.2699L60.4399 17.8375L63.1199 39.3776L63.3399 41.1276H61.6199H2.18993H0.669922V39.5676C0.669922 33.9476 1.46992 28.2675 4.25992 23.9175C7.10992 19.4475 11.9499 16.4675 19.9199 16.4675ZM57.6099 19.5875H19.9199C13.1299 19.5875 9.09992 21.9976 6.77992 25.6176C4.62992 28.9676 3.85992 33.4176 3.72992 37.9976H59.8999L57.6099 19.5875Z" fill="white"/>
<path fill-rule="evenodd" clip-rule="evenodd" d="M13 4.07751C12.16 4.07751 11.48 3.37752 11.48 2.51752C11.48 1.65752 12.16 0.95752 13 0.95752H57.2C57.99 0.95752 58.64 1.57756 58.71 2.37756L63.12 39.3776C63.22 40.2276 62.63 41.0076 61.8 41.1176C60.97 41.2176 60.21 40.6176 60.11 39.7576L55.85 4.08752H13V4.07751Z" fill="white"/>
</svg>
