<svg width="78" height="48" viewBox="0 0 78 48" fill="none" xmlns="http://www.w3.org/2000/svg">
<path fill-rule="evenodd" clip-rule="evenodd" d="M25.3896 16.4675H64.4096H65.7397L65.9096 17.8375L68.5897 39.3776L68.8096 41.1276H67.0897H7.65965H6.13965V39.5676C6.13965 33.9476 6.93965 28.2675 9.71965 23.9175C12.5797 19.4475 17.4096 16.4675 25.3896 16.4675ZM63.0797 19.5875H25.3896C18.5996 19.5875 14.5696 21.9976 12.2496 25.6176C10.0996 28.9676 9.32965 33.4176 9.19965 37.9976H65.3697L63.0797 19.5875Z" fill="white"/>
<path fill-rule="evenodd" clip-rule="evenodd" d="M18.4594 4.07751C17.6194 4.07751 16.9395 3.37752 16.9395 2.51752C16.9395 1.65752 17.6194 0.95752 18.4594 0.95752H62.6694C63.4594 0.95752 64.1095 1.57756 64.1795 2.37756L68.5895 39.3776C68.6895 40.2276 68.0995 41.0076 67.2695 41.1176C66.4395 41.2176 65.6795 40.6176 65.5795 39.7576L61.3194 4.08752H18.4594V4.07751Z" fill="white"/>
<path fill-rule="evenodd" clip-rule="evenodd" d="M2.73977 47.0874C1.97977 47.4474 1.07979 47.1074 0.719786 46.3374C0.369786 45.5574 0.699776 44.6274 1.45978 44.2674L75.4498 8.84744C76.2098 8.48744 77.1098 8.82744 77.4698 9.59744C77.8198 10.3774 77.4898 11.3074 76.7298 11.6674L2.73977 47.0874Z" fill="white"/>
<path fill-rule="evenodd" clip-rule="evenodd" d="M76.7298 44.2675C77.4898 44.6275 77.8198 45.5575 77.4698 46.3375C77.1198 47.1175 76.2098 47.4575 75.4498 47.0875L1.45978 11.6675C0.699776 11.3075 0.369786 10.3775 0.719786 9.59754C1.06979 8.81754 1.97977 8.47754 2.73977 8.84754L76.7298 44.2675Z" fill="white"/>
</svg>
