<svg width="63" height="42" viewBox="0 0 63 42" fill="none" xmlns="http://www.w3.org/2000/svg">
<path fill-rule="evenodd" clip-rule="evenodd" d="M26.1405 33.0576C28.4305 33.0576 30.2905 31.1376 30.2905 28.7876C30.2905 26.4376 28.4205 24.5276 26.1405 24.5276C23.8505 24.5276 21.9805 26.4476 21.9805 28.7876C21.9905 31.1476 23.8505 33.0576 26.1405 33.0576Z" fill="white"/>
<path fill-rule="evenodd" clip-rule="evenodd" d="M37.8902 33.0576C40.1802 33.0576 42.0502 31.1376 42.0502 28.7876C42.0502 26.4376 40.1802 24.5276 37.8902 24.5276C35.6002 24.5276 33.7402 26.4476 33.7402 28.7876C33.7402 31.1476 35.6102 33.0576 37.8902 33.0576Z" fill="white"/>
<path fill-rule="evenodd" clip-rule="evenodd" d="M19.3203 16.4675H58.3403H59.6703L59.8403 17.8375L62.5203 39.3776L62.7403 41.1276H61.0203H1.59033H0.0703125V39.5676C0.0703125 33.9476 0.87033 28.2675 3.65033 23.9175C6.52033 19.4475 11.3503 16.4675 19.3203 16.4675ZM57.0103 19.5875H19.3203C12.5403 19.5875 8.50031 21.9976 6.19031 25.6176C4.04031 28.9676 3.27032 33.4176 3.14032 37.9976H59.3103L57.0103 19.5875Z" fill="white"/>
<path fill-rule="evenodd" clip-rule="evenodd" d="M12.3999 4.07751C11.5599 4.07751 10.8799 3.37752 10.8799 2.51752C10.8799 1.65752 11.5599 0.95752 12.3999 0.95752H56.6099C57.3999 0.95752 58.0499 1.57756 58.1199 2.37756L62.5299 39.3776C62.6299 40.2276 62.0399 41.0076 61.2099 41.1176C60.3799 41.2176 59.6199 40.6176 59.5199 39.7576L55.2599 4.08752H12.3999V4.07751Z" fill="white"/>
</svg>
