<svg width="64" height="42" viewBox="0 0 64 42" fill="none" xmlns="http://www.w3.org/2000/svg">
<path fill-rule="evenodd" clip-rule="evenodd" d="M31.7802 33.7875C34.0702 33.7875 35.9301 31.8675 35.9301 29.5275C35.9301 27.1775 34.0602 25.2576 31.7802 25.2576C29.4902 25.2576 27.6201 27.1775 27.6201 29.5275C27.6201 31.8675 29.4902 33.7875 31.7802 33.7875Z" fill="white"/>
<path fill-rule="evenodd" clip-rule="evenodd" d="M19.79 16.4675H58.81H60.14L60.31 17.8375L62.99 39.3776L63.21 41.1276H61.49H2.06H0.540039V39.5676C0.540039 33.9476 1.34 28.2675 4.13 23.9175C6.98 19.4475 11.82 16.4675 19.79 16.4675ZM57.48 19.5875H19.79C13 19.5875 8.97002 21.9976 6.65002 25.6176C4.50002 28.9676 3.73004 33.4176 3.60004 37.9976H59.77L57.48 19.5875Z" fill="white"/>
<path fill-rule="evenodd" clip-rule="evenodd" d="M12.8696 4.07751C12.0296 4.07751 11.3496 3.37752 11.3496 2.51752C11.3496 1.65752 12.0296 0.95752 12.8696 0.95752H57.0796C57.8696 0.95752 58.5196 1.57756 58.5896 2.37756L63.0096 39.3776C63.1096 40.2276 62.5196 41.0076 61.6896 41.1176C60.8596 41.2176 60.0996 40.6176 59.9996 39.7576L55.7396 4.08752H12.8696V4.07751Z" fill="white"/>
</svg>
