<svg width="64" height="42" viewBox="0 0 64 42" fill="none" xmlns="http://www.w3.org/2000/svg">
<path fill-rule="evenodd" clip-rule="evenodd" d="M20.5003 33.4775C22.7903 33.4775 24.6503 31.5575 24.6503 29.2075C24.6503 26.8575 22.7803 24.9475 20.5003 24.9475C18.2103 24.9475 16.3403 26.8675 16.3403 29.2075C16.3403 31.5575 18.2103 33.4775 20.5003 33.4775Z" fill="white"/>
<path fill-rule="evenodd" clip-rule="evenodd" d="M32.2501 33.4775C34.5401 33.4775 36.4002 31.5575 36.4002 29.2075C36.4002 26.8575 34.5301 24.9475 32.2501 24.9475C29.9601 24.9475 28.1001 26.8675 28.1001 29.2075C28.0901 31.5575 29.9601 33.4775 32.2501 33.4775Z" fill="white"/>
<path fill-rule="evenodd" clip-rule="evenodd" d="M44.0001 33.4775C46.2901 33.4775 48.1502 31.5575 48.1502 29.2075C48.1502 26.8575 46.2801 24.9475 44.0001 24.9475C41.7101 24.9475 39.8501 26.8675 39.8501 29.2075C39.8401 31.5575 41.7101 33.4775 44.0001 33.4775Z" fill="white"/>
<path fill-rule="evenodd" clip-rule="evenodd" d="M19.8604 16.4675H58.8803H60.2104L60.3803 17.8375L63.0603 39.3776L63.2803 41.1276H61.5603H2.13034H0.610352V39.5676C0.610352 33.9476 1.41034 28.2675 4.19034 23.9175C7.05034 19.4475 11.8804 16.4675 19.8604 16.4675ZM57.5504 19.5875H19.8604C13.0804 19.5875 9.04034 21.9976 6.72034 25.6176C4.57034 28.9676 3.80035 33.4176 3.67035 37.9976H59.8404L57.5504 19.5875Z" fill="white"/>
<path fill-rule="evenodd" clip-rule="evenodd" d="M12.9302 4.07751C12.0902 4.07751 11.4102 3.37752 11.4102 2.51752C11.4102 1.65752 12.0902 0.95752 12.9302 0.95752H57.1402C57.9302 0.95752 58.5802 1.57756 58.6502 2.37756L63.0702 39.3776C63.1702 40.2276 62.5802 41.0076 61.7502 41.1176C60.9202 41.2176 60.1602 40.6176 60.0602 39.7576L55.8002 4.08752H12.9302V4.07751Z" fill="white"/>
</svg>
