<svg width="63" height="66" viewBox="0 0 63 66" fill="none" xmlns="http://www.w3.org/2000/svg">
<path fill-rule="evenodd" clip-rule="evenodd" d="M19.26 16.4675H58.28H59.61L59.78 17.8375L62.46 39.3776L62.68 41.1276H60.96H1.53003H0.0100098V39.5676C0.0100098 33.9476 0.810037 28.2675 3.60004 23.9175C6.45004 19.4475 11.28 16.4675 19.26 16.4675ZM56.95 19.5875H19.26C12.47 19.5875 8.44 21.9976 6.13 25.6176C3.98 28.9676 3.21002 33.4176 3.08002 37.9976H59.25L56.95 19.5875Z" fill="white"/>
<path fill-rule="evenodd" clip-rule="evenodd" d="M12.3298 4.07751C11.4898 4.07751 10.8098 3.37752 10.8098 2.51752C10.8098 1.65752 11.4898 0.95752 12.3298 0.95752H56.5399C57.3299 0.95752 57.9798 1.57756 58.0498 2.37756L62.4698 39.3776C62.5698 40.2276 61.9798 41.0076 61.1498 41.1176C60.3198 41.2176 59.5598 40.6176 59.4598 39.7576L55.1998 4.07751H12.3298Z" fill="white"/>
<path fill-rule="evenodd" clip-rule="evenodd" d="M13.8199 65.5776C13.0799 65.9876 12.1599 65.6976 11.7699 64.9476C11.3699 64.1876 11.6499 63.2476 12.3899 62.8376L49.5499 42.2277C50.2899 41.8177 51.2099 42.1077 51.5999 42.8577C51.9999 43.6177 51.7199 44.5576 50.9799 44.9676L13.8199 65.5776Z" fill="white"/>
<path fill-rule="evenodd" clip-rule="evenodd" d="M50.9799 62.8374C51.7199 63.2474 51.9899 64.1874 51.5999 64.9474C51.1999 65.7074 50.2799 65.9874 49.5499 65.5774L12.3899 44.9674C11.6499 44.5574 11.3799 43.6175 11.7699 42.8575C12.1699 42.0975 13.0899 41.8175 13.8199 42.2275L50.9799 62.8374Z" fill="white"/>
<path fill-rule="evenodd" clip-rule="evenodd" d="M16.44 63.7376C16.1 64.5176 15.2 64.8676 14.43 64.5176C13.67 64.1676 13.33 63.2476 13.67 62.4576L23.85 39.2276C24.2 38.4476 25.09 38.0976 25.86 38.4476C26.62 38.7976 26.96 39.7276 26.62 40.5076L16.44 63.7376Z" fill="white"/>
<path fill-rule="evenodd" clip-rule="evenodd" d="M49.68 62.4576C50.02 63.2376 49.68 64.1676 48.92 64.5176C48.16 64.8676 47.26 64.5176 46.91 63.7376L36.73 40.5076C36.39 39.7176 36.73 38.7976 37.49 38.4476C38.25 38.0976 39.15 38.4476 39.5 39.2276L49.68 62.4576Z" fill="white"/>
</svg>
