<svg width="53" height="54" viewBox="0 0 53 54" fill="none" xmlns="http://www.w3.org/2000/svg">
<path fill-rule="evenodd" clip-rule="evenodd" d="M28.27 3.10764L51.77 51.3376L52.8699 53.5976H50.4199H3.42993H0.97998L2.07996 51.3376L25.58 3.10764L26.9299 0.327637L28.27 3.10764ZM47.96 50.4776L26.9199 7.27762L5.87994 50.4776H47.96Z" fill="white"/>
<path d="M33.1099 30.0276H31.6299V44.5076H33.1099V30.0276Z" fill="white"/>
<path fill-rule="evenodd" clip-rule="evenodd" d="M28.8501 42.9976C28.5101 43.1476 28.1001 43.2676 27.6601 43.3576C27.1601 43.4576 26.6 43.5176 26.05 43.5176C24.36 43.5176 23.0201 42.9576 22.1001 41.9676C21.1601 40.9576 20.6601 39.4976 20.6601 37.7176C20.6601 35.8576 21.1901 34.3876 22.1301 33.3676C23.1001 32.3176 24.4801 31.7576 26.1501 31.7576C26.7001 31.7576 27.2101 31.8176 27.6601 31.9076C28.0901 31.9976 28.48 32.1276 28.8 32.2776L29.1601 31.0976C28.8901 30.9676 28.4601 30.8176 27.8801 30.7076C27.3901 30.6176 26.7901 30.5476 26.0901 30.5476C24.0101 30.5476 22.2501 31.2676 21.0201 32.5376C19.8001 33.7976 19.0901 35.5976 19.0901 37.7676C19.0901 39.9676 19.75 41.6676 20.86 42.8376C22.04 44.0876 23.7301 44.7376 25.6801 44.7376C26.4301 44.7376 27.1201 44.6676 27.6901 44.5676C28.3001 44.4576 28.78 44.3076 29.11 44.1476L28.8501 42.9976Z" fill="white"/>
</svg>
