<svg width="53" height="54" viewBox="0 0 53 54" fill="none" xmlns="http://www.w3.org/2000/svg">
<path fill-rule="evenodd" clip-rule="evenodd" d="M28.1599 3.10764L51.6599 51.3376L52.7599 53.5976H50.3099H3.31989H0.869873L1.96991 51.3376L25.4699 3.10764L26.8199 0.327637L28.1599 3.10764ZM47.8499 50.4776L26.8099 7.27762L5.7699 50.4776H47.8499Z" fill="white"/>
<path fill-rule="evenodd" clip-rule="evenodd" d="M14.2499 51.3475L31.5999 15.7375L32.9499 12.9575L34.2999 15.7375L51.6399 51.3475L52.7399 53.6075H50.2899H15.5999H13.1499L14.2499 51.3475ZM32.9499 19.9075L18.0599 50.4875H47.8499L32.9499 19.9075Z" fill="white"/>
<path fill-rule="evenodd" clip-rule="evenodd" d="M23.2299 51.3475L36.0899 24.9475L37.4399 22.1675L38.7899 24.9475L51.6499 51.3475L52.7499 53.6075H50.2999H24.5799H22.1299L23.2299 51.3475ZM37.4399 29.1175L27.0299 50.4775H47.8399L37.4399 29.1175Z" fill="white"/>
</svg>
