<svg width="68" height="54" viewBox="0 0 68 54" fill="none" xmlns="http://www.w3.org/2000/svg">
<path fill-rule="evenodd" clip-rule="evenodd" d="M3.21026 49.8175C1.87026 50.4575 0.490257 50.3475 0.140257 49.5675C-0.219743 48.7875 0.590235 47.6375 1.93024 46.9875L64.8403 16.8775C66.1803 16.2375 67.5603 16.3475 67.9103 17.1275C68.2703 17.9075 67.4602 19.0575 66.1202 19.7075L3.21026 49.8175Z" fill="white"/>
<path fill-rule="evenodd" clip-rule="evenodd" d="M64.8401 49.8175C66.1801 50.4575 67.5601 50.3475 67.9101 49.5675C68.2601 48.7875 67.46 47.6375 66.12 46.9875L3.21005 16.8775C1.87005 16.2375 0.490036 16.3475 0.130036 17.1275C-0.219964 17.9075 0.580014 19.0575 1.92001 19.7075L64.8401 49.8175Z" fill="white"/>
<path fill-rule="evenodd" clip-rule="evenodd" d="M35.3803 3.10764L58.8803 51.3376L59.9803 53.5976H57.5303H10.5403H8.09033L9.19031 51.3376L32.6903 3.10764L34.0403 0.327637L35.3803 3.10764ZM55.0703 50.4776L34.0303 7.27762L12.9903 50.4776H55.0703Z" fill="white"/>
</svg>
