<svg width="61" height="45" viewBox="0 0 61 45" fill="none" xmlns="http://www.w3.org/2000/svg">
<path fill-rule="evenodd" clip-rule="evenodd" d="M57.3804 1.37007C57.5604 0.530066 58.3604 -0.00993653 59.1804 0.180063C60.0004 0.360063 60.5204 1.19007 60.3404 2.03007L51.5604 43.2401C51.4104 43.9701 50.7804 44.4701 50.0804 44.4701H10.4404C9.69038 44.4701 9.07038 43.9101 8.94038 43.1801L0.17038 2.04008C-0.00961952 1.20008 0.510384 0.370073 1.33038 0.190073C2.15038 0.0100732 2.96038 0.540076 3.14038 1.38008L11.6604 41.3501H48.8504L57.3804 1.37007Z" fill="white"/>
<path fill-rule="evenodd" clip-rule="evenodd" d="M3.41992 11.34C3.85992 11.34 4.74992 10.31 5.62992 9.28997C6.96992 7.73997 8.29992 6.19996 10.0899 6.18996C11.8799 6.17996 13.2399 7.70997 14.5899 9.22997C15.4899 10.24 16.3899 11.26 16.8299 11.25C17.2699 11.25 18.1599 10.22 19.0499 9.19997C20.3899 7.64997 21.7199 6.10996 23.5099 6.09996C25.2999 6.08996 26.6599 7.61997 28.0099 9.13997C28.9099 10.15 29.8099 11.17 30.2499 11.16C30.6899 11.16 31.5799 10.1299 32.4699 9.10994C33.7999 7.56994 35.1399 6.01997 36.9299 6.00997C38.7199 5.99997 40.0799 7.52994 41.4299 9.04994C42.3299 10.0599 43.2299 11.08 43.6699 11.07C44.1099 11.07 44.9999 10.0399 45.8799 9.01995C47.2199 7.46995 48.5499 5.92997 50.3499 5.91997C52.1399 5.90997 53.4999 7.43995 54.8499 8.95995C55.7499 9.96995 56.6499 10.99 57.0899 10.98L57.1099 14.1C55.3199 14.11 53.9599 12.58 52.6099 11.06C51.7099 10.05 50.8099 9.02997 50.3699 9.03997C49.9299 9.03997 49.0399 10.07 48.1499 11.09C46.8099 12.63 45.4799 14.18 43.6899 14.19C41.8999 14.2 40.5399 12.67 39.1899 11.15C38.2899 10.14 37.3899 9.11996 36.9499 9.12996C36.5099 9.12996 35.6199 10.1599 34.7399 11.1799C33.3999 12.7199 32.0699 14.27 30.2799 14.28C28.4899 14.29 27.1299 12.7599 25.7799 11.2399C24.8799 10.2299 23.9799 9.20996 23.5399 9.21996C23.0999 9.21996 22.2099 10.2499 21.3199 11.2699C19.9799 12.8099 18.6499 14.36 16.8599 14.37C15.0699 14.38 13.7099 12.8499 12.3599 11.3299C11.4599 10.3199 10.5599 9.29995 10.1199 9.30995C9.67992 9.30995 8.78993 10.3399 7.89993 11.3599C6.55993 12.8999 5.22992 14.4499 3.43992 14.4599L3.41992 11.34Z" fill="white"/>
<path fill-rule="evenodd" clip-rule="evenodd" d="M44.1801 16.9501C44.9001 16.9501 45.5501 17.2501 46.0201 17.7301C46.4901 18.2101 46.7801 18.8801 46.7801 19.6201C46.7801 20.3601 46.4901 21.0301 46.0201 21.5101C45.5501 21.9901 44.9001 22.2901 44.1801 22.2901C43.4601 22.2901 42.8101 21.9901 42.3401 21.5101C41.8701 21.0301 41.5801 20.3601 41.5801 19.6201C41.5801 18.8801 41.8701 18.2201 42.3401 17.7301C42.8101 17.2501 43.4701 16.9501 44.1801 16.9501ZM45.3101 18.4601C45.0201 18.1701 44.6301 17.9801 44.1801 17.9801C43.7401 17.9801 43.3401 18.1601 43.0501 18.4601C42.7601 18.7501 42.5901 19.1601 42.5901 19.6201C42.5901 20.0701 42.7701 20.4801 43.0501 20.7801C43.3401 21.0701 43.7301 21.2601 44.1801 21.2601C44.6201 21.2601 45.0201 21.0801 45.3101 20.7801C45.6001 20.4901 45.7701 20.0801 45.7701 19.6201C45.7801 19.1701 45.6001 18.7601 45.3101 18.4601Z" fill="white"/>
<path d="M21.2539 25.751H22.9619C23.4489 25.751 23.8499 25.665 24.165 25.4932C24.4873 25.3213 24.7236 25.0778 24.874 24.7627C25.0316 24.4476 25.1104 24.0788 25.1104 23.6562C25.1104 23.291 25.0387 22.9652 24.8955 22.6787C24.7523 22.3923 24.5339 22.1667 24.2402 22.002C23.9538 21.8301 23.5814 21.7441 23.123 21.7441C22.7936 21.7441 22.4785 21.8122 22.1777 21.9482C21.8841 22.0771 21.6442 22.2669 21.458 22.5176C21.2718 22.7611 21.1787 23.0547 21.1787 23.3984H17.8164C17.8164 22.5247 18.0527 21.7692 18.5254 21.1318C19.0052 20.4945 19.639 20.0039 20.4268 19.6602C21.2217 19.3092 22.0882 19.1338 23.0264 19.1338C24.1077 19.1338 25.0566 19.3057 25.873 19.6494C26.6966 19.986 27.334 20.4873 27.7852 21.1533C28.2435 21.8122 28.4727 22.6286 28.4727 23.6025C28.4727 24.111 28.3509 24.6016 28.1074 25.0742C27.8711 25.5397 27.5309 25.9551 27.0869 26.3203C26.6501 26.6784 26.1273 26.9648 25.5186 27.1797C24.917 27.3874 24.2474 27.4912 23.5098 27.4912H21.2539V25.751ZM21.2539 28.2754V26.5674H23.5098C24.3262 26.5674 25.0566 26.6605 25.7012 26.8467C26.3457 27.0329 26.8936 27.3014 27.3447 27.6523C27.7959 28.0033 28.1396 28.4294 28.376 28.9307C28.6123 29.432 28.7305 29.9906 28.7305 30.6064C28.7305 31.3369 28.5872 31.9886 28.3008 32.5615C28.0143 33.1344 27.6133 33.6178 27.0977 34.0117C26.582 34.4056 25.9769 34.7064 25.2822 34.9141C24.5876 35.1146 23.8356 35.2148 23.0264 35.2148C22.3747 35.2148 21.7266 35.1253 21.082 34.9463C20.4375 34.7673 19.8538 34.4951 19.3311 34.1299C18.8083 33.7575 18.3893 33.2884 18.0742 32.7227C17.7591 32.1497 17.6016 31.4694 17.6016 30.6816H20.9639C20.9639 31.0469 21.057 31.3763 21.2432 31.6699C21.4365 31.9564 21.6979 32.1855 22.0273 32.3574C22.3639 32.5221 22.7292 32.6045 23.123 32.6045C23.5957 32.6045 23.9967 32.5186 24.3262 32.3467C24.6628 32.1676 24.917 31.9242 25.0889 31.6162C25.2679 31.3083 25.3574 30.9538 25.3574 30.5527C25.3574 30.0085 25.2607 29.5716 25.0674 29.2422C24.8812 28.9056 24.609 28.6621 24.251 28.5117C23.8929 28.3542 23.4632 28.2754 22.9619 28.2754H21.2539ZM41.4062 25.7832V28.5654C41.4062 29.7113 41.2773 30.7031 41.0195 31.541C40.7689 32.3789 40.4036 33.07 39.9238 33.6143C39.4512 34.1585 38.8854 34.5632 38.2266 34.8281C37.5749 35.0859 36.8516 35.2148 36.0566 35.2148C35.4193 35.2148 34.8249 35.1325 34.2734 34.9678C33.722 34.8031 33.2243 34.5488 32.7803 34.2051C32.3434 33.8542 31.9674 33.4173 31.6523 32.8945C31.3372 32.3717 31.0938 31.7487 30.9219 31.0254C30.7572 30.3021 30.6748 29.4821 30.6748 28.5654V25.7832C30.6748 24.623 30.8001 23.6276 31.0508 22.7969C31.3086 21.9661 31.6774 21.2786 32.1572 20.7344C32.637 20.1901 33.2028 19.7891 33.8545 19.5312C34.5133 19.2734 35.2402 19.1445 36.0352 19.1445C36.6725 19.1445 37.2633 19.2269 37.8076 19.3916C38.359 19.5563 38.8568 19.8105 39.3008 20.1543C39.7448 20.498 40.1208 20.9313 40.4287 21.4541C40.7438 21.9769 40.9837 22.5999 41.1484 23.3232C41.3203 24.0394 41.4062 24.8594 41.4062 25.7832ZM38.0547 28.9844V25.3428C38.0547 24.8057 38.0225 24.3402 37.958 23.9463C37.9007 23.5452 37.8148 23.2051 37.7002 22.9258C37.5928 22.6465 37.4567 22.4209 37.292 22.249C37.1273 22.0771 36.9375 21.9518 36.7227 21.873C36.515 21.7871 36.2858 21.7441 36.0352 21.7441C35.7201 21.7441 35.4372 21.8086 35.1865 21.9375C34.9359 22.0664 34.7246 22.2705 34.5527 22.5498C34.3809 22.8219 34.2484 23.1908 34.1553 23.6562C34.0693 24.1146 34.0264 24.6768 34.0264 25.3428V28.9844C34.0264 29.5215 34.055 29.9906 34.1123 30.3916C34.1768 30.7926 34.2627 31.1364 34.3701 31.4229C34.4847 31.7021 34.6243 31.9313 34.7891 32.1104C34.9538 32.2822 35.1436 32.4076 35.3584 32.4863C35.5732 32.5651 35.806 32.6045 36.0566 32.6045C36.3717 32.6045 36.651 32.5436 36.8945 32.4219C37.138 32.293 37.3457 32.0889 37.5176 31.8096C37.6966 31.5231 37.8291 31.1471 37.915 30.6816C38.0081 30.2161 38.0547 29.6504 38.0547 28.9844Z" fill="white"/>
</svg>
