<svg width="61" height="53" viewBox="0 0 61 53" fill="none" xmlns="http://www.w3.org/2000/svg">
<path fill-rule="evenodd" clip-rule="evenodd" d="M57.2456 1.54011C57.4256 0.70011 58.2256 0.160107 59.0456 0.350107C59.8656 0.530107 60.3856 1.36011 60.2056 2.20011L51.4256 43.4101C51.2756 44.1401 50.6456 44.6401 49.9456 44.6401H10.3056C9.55561 44.6401 8.92561 44.0801 8.80561 43.3501L0.0356149 2.21009C-0.144385 1.37009 0.375619 0.540087 1.19562 0.360087C2.01562 0.180087 2.82561 0.710089 2.99561 1.55009L11.5156 41.5201H48.7156L57.2456 1.54011Z" fill="white"/>
<path fill-rule="evenodd" clip-rule="evenodd" d="M3.28564 11.1701C3.72564 11.1701 4.62565 10.1501 5.51565 9.13007C6.85565 7.59007 8.20564 6.06006 9.99564 6.06006C11.7856 6.06006 13.1356 7.60007 14.4756 9.13007C15.3656 10.1501 16.2557 11.1701 16.7057 11.1701C17.1457 11.1701 18.0456 10.1501 18.9356 9.13007C20.2756 7.59007 21.6256 6.06006 23.4156 6.06006C25.2056 6.06006 26.5557 7.60007 27.8957 9.13007C28.7857 10.1501 29.6756 11.1701 30.1256 11.1701C30.5656 11.1701 31.4656 10.1501 32.3556 9.13007C33.7056 7.59007 35.0456 6.06006 36.8356 6.06006C38.6256 6.06006 39.9757 7.60007 41.3157 9.13007C42.2057 10.1501 43.0956 11.1701 43.5456 11.1701C43.9856 11.1701 44.8856 10.1501 45.7756 9.13007C47.1256 7.59007 48.4656 6.06006 50.2556 6.06006C52.0456 6.06006 53.3956 7.60007 54.7356 9.13007C55.6256 10.1501 56.5156 11.1701 56.9656 11.1701V14.2901C55.1756 14.2901 53.8256 12.7501 52.4856 11.2201C51.5956 10.2001 50.7056 9.18005 50.2556 9.18005C49.8056 9.18005 48.9156 10.2001 48.0256 11.2201C46.6856 12.7501 45.3356 14.2901 43.5456 14.2901C41.7556 14.2901 40.4057 12.7501 39.0657 11.2201C38.1757 10.2001 37.2856 9.18005 36.8356 9.18005C36.3856 9.18005 35.4956 10.2001 34.6056 11.2201C33.2556 12.7501 31.9156 14.2901 30.1256 14.2901C28.3356 14.2901 26.9857 12.7501 25.6457 11.2201C24.7557 10.2001 23.8656 9.18005 23.4156 9.18005C22.9756 9.18005 22.0756 10.2001 21.1856 11.2201C19.8456 12.7501 18.4957 14.2901 16.7057 14.2901C14.9157 14.2901 13.5656 12.7501 12.2256 11.2201C11.3356 10.2001 10.4456 9.18005 9.99564 9.18005C9.55564 9.18005 8.65565 10.2001 7.76565 11.2101C6.42565 12.7501 5.07564 14.2801 3.28564 14.2801V11.1701Z" fill="white"/>
<path fill-rule="evenodd" clip-rule="evenodd" d="M10.9258 52.5499C10.0858 52.5499 9.40576 51.8499 9.40576 50.9899C9.40576 50.1299 10.0858 49.4299 10.9258 49.4299H50.2358C51.0758 49.4299 51.7558 50.1299 51.7558 50.9899C51.7558 51.8499 51.0758 52.5499 50.2358 52.5499H10.9258Z" fill="white"/>
<path fill-rule="evenodd" clip-rule="evenodd" d="M44.056 16.9501C44.776 16.9501 45.4261 17.2501 45.8961 17.7301C46.3661 18.2101 46.6561 18.8801 46.6561 19.6201C46.6561 20.3601 46.3661 21.0301 45.8961 21.5101C45.4261 21.9901 44.776 22.2901 44.056 22.2901C43.336 22.2901 42.686 21.9901 42.216 21.5101C41.746 21.0301 41.4561 20.3601 41.4561 19.6201C41.4561 18.8801 41.746 18.2201 42.216 17.7301C42.686 17.2501 43.336 16.9501 44.056 16.9501ZM45.1761 18.4601C44.8861 18.1701 44.4961 17.9801 44.0461 17.9801C43.6061 17.9801 43.206 18.1601 42.916 18.4601C42.626 18.7501 42.446 19.1601 42.446 19.6201C42.446 20.0701 42.626 20.4801 42.916 20.7801C43.206 21.0701 43.6061 21.2601 44.0461 21.2601C44.4861 21.2601 44.8861 21.0801 45.1761 20.7801C45.4661 20.4901 45.6461 20.0801 45.6461 19.6201C45.6461 19.1701 45.4661 18.7601 45.1761 18.4601Z" fill="white"/>
<path d="M22.0796 25.751H23.7876C24.2746 25.751 24.6756 25.665 24.9907 25.4932C25.313 25.3213 25.5493 25.0778 25.6997 24.7627C25.8573 24.4476 25.936 24.0788 25.936 23.6562C25.936 23.291 25.8644 22.9652 25.7212 22.6787C25.578 22.3923 25.3595 22.1667 25.0659 22.002C24.7795 21.8301 24.4071 21.7441 23.9487 21.7441C23.6193 21.7441 23.3042 21.8122 23.0034 21.9482C22.7098 22.0771 22.4699 22.2669 22.2837 22.5176C22.0975 22.7611 22.0044 23.0547 22.0044 23.3984H18.6421C18.6421 22.5247 18.8784 21.7692 19.3511 21.1318C19.8309 20.4945 20.4647 20.0039 21.2524 19.6602C22.0474 19.3092 22.9139 19.1338 23.8521 19.1338C24.9334 19.1338 25.8823 19.3057 26.6987 19.6494C27.5223 19.986 28.1597 20.4873 28.6108 21.1533C29.0692 21.8122 29.2983 22.6286 29.2983 23.6025C29.2983 24.111 29.1766 24.6016 28.9331 25.0742C28.6968 25.5397 28.3566 25.9551 27.9126 26.3203C27.4757 26.6784 26.953 26.9648 26.3442 27.1797C25.7427 27.3874 25.0731 27.4912 24.3354 27.4912H22.0796V25.751ZM22.0796 28.2754V26.5674H24.3354C25.1519 26.5674 25.8823 26.6605 26.5269 26.8467C27.1714 27.0329 27.7192 27.3014 28.1704 27.6523C28.6216 28.0033 28.9653 28.4294 29.2017 28.9307C29.438 29.432 29.5562 29.9906 29.5562 30.6064C29.5562 31.3369 29.4129 31.9886 29.1265 32.5615C28.84 33.1344 28.439 33.6178 27.9233 34.0117C27.4077 34.4056 26.8026 34.7064 26.1079 34.9141C25.4132 35.1146 24.6613 35.2148 23.8521 35.2148C23.2004 35.2148 22.5522 35.1253 21.9077 34.9463C21.2632 34.7673 20.6795 34.4951 20.1567 34.1299C19.634 33.7575 19.215 33.2884 18.8999 32.7227C18.5848 32.1497 18.4272 31.4694 18.4272 30.6816H21.7896C21.7896 31.0469 21.8826 31.3763 22.0688 31.6699C22.2622 31.9564 22.5236 32.1855 22.853 32.3574C23.1896 32.5221 23.5549 32.6045 23.9487 32.6045C24.4214 32.6045 24.8224 32.5186 25.1519 32.3467C25.4884 32.1676 25.7427 31.9242 25.9146 31.6162C26.0936 31.3083 26.1831 30.9538 26.1831 30.5527C26.1831 30.0085 26.0864 29.5716 25.8931 29.2422C25.7069 28.9056 25.4347 28.6621 25.0767 28.5117C24.7186 28.3542 24.2889 28.2754 23.7876 28.2754H22.0796ZM42.2319 25.7832V28.5654C42.2319 29.7113 42.103 30.7031 41.8452 31.541C41.5946 32.3789 41.2293 33.07 40.7495 33.6143C40.2769 34.1585 39.7111 34.5632 39.0522 34.8281C38.4006 35.0859 37.6772 35.2148 36.8823 35.2148C36.245 35.2148 35.6506 35.1325 35.0991 34.9678C34.5477 34.8031 34.05 34.5488 33.606 34.2051C33.1691 33.8542 32.7931 33.4173 32.478 32.8945C32.1629 32.3717 31.9194 31.7487 31.7476 31.0254C31.5828 30.3021 31.5005 29.4821 31.5005 28.5654V25.7832C31.5005 24.623 31.6258 23.6276 31.8765 22.7969C32.1343 21.9661 32.5031 21.2786 32.9829 20.7344C33.4627 20.1901 34.0285 19.7891 34.6802 19.5312C35.339 19.2734 36.0659 19.1445 36.8608 19.1445C37.4982 19.1445 38.089 19.2269 38.6333 19.3916C39.1847 19.5563 39.6825 19.8105 40.1265 20.1543C40.5705 20.498 40.9465 20.9313 41.2544 21.4541C41.5695 21.9769 41.8094 22.5999 41.9741 23.3232C42.146 24.0394 42.2319 24.8594 42.2319 25.7832ZM38.8804 28.9844V25.3428C38.8804 24.8057 38.8481 24.3402 38.7837 23.9463C38.7264 23.5452 38.6405 23.2051 38.5259 22.9258C38.4185 22.6465 38.2824 22.4209 38.1177 22.249C37.953 22.0771 37.7632 21.9518 37.5483 21.873C37.3407 21.7871 37.1115 21.7441 36.8608 21.7441C36.5457 21.7441 36.2629 21.8086 36.0122 21.9375C35.7616 22.0664 35.5503 22.2705 35.3784 22.5498C35.2065 22.8219 35.0741 23.1908 34.981 23.6562C34.895 24.1146 34.8521 24.6768 34.8521 25.3428V28.9844C34.8521 29.5215 34.8807 29.9906 34.938 30.3916C35.0024 30.7926 35.0884 31.1364 35.1958 31.4229C35.3104 31.7021 35.45 31.9313 35.6147 32.1104C35.7795 32.2822 35.9692 32.4076 36.1841 32.4863C36.3989 32.5651 36.6317 32.6045 36.8823 32.6045C37.1974 32.6045 37.4767 32.5436 37.7202 32.4219C37.9637 32.293 38.1714 32.0889 38.3433 31.8096C38.5223 31.5231 38.6548 31.1471 38.7407 30.6816C38.8338 30.2161 38.8804 29.6504 38.8804 28.9844Z" fill="white"/>
</svg>
