<svg width="62" height="53" viewBox="0 0 62 53" fill="none" xmlns="http://www.w3.org/2000/svg">
<path fill-rule="evenodd" clip-rule="evenodd" d="M58.0713 1.2281C58.2513 0.388098 59.0513 -0.151904 59.8713 0.0380957C60.6913 0.218096 61.2113 1.0481 61.0313 1.8881L52.2513 43.0981C52.1013 43.8281 51.4713 44.3281 50.7713 44.3281H11.1313C10.3813 44.3281 9.7513 43.7681 9.6313 43.0381L0.861298 1.89808C0.681298 1.05808 1.2013 0.228075 2.0213 0.0480749C2.8413 -0.131925 3.6513 0.398077 3.8213 1.23808L12.3413 41.2081H49.5413L58.0713 1.2281Z" fill="white"/>
<path fill-rule="evenodd" clip-rule="evenodd" d="M4.11133 10.8581C4.55133 10.8581 5.45133 9.83805 6.34133 8.81805C7.68133 7.27805 9.03133 5.74805 10.8213 5.74805C12.6113 5.74805 13.9613 7.28805 15.3013 8.81805C16.1913 9.83805 17.0813 10.8581 17.5313 10.8581C17.9713 10.8581 18.8713 9.83805 19.7613 8.81805C21.1013 7.27805 22.4513 5.74805 24.2413 5.74805C26.0313 5.74805 27.3813 7.28805 28.7213 8.81805C29.6113 9.83805 30.5013 10.8581 30.9513 10.8581C31.3913 10.8581 32.2913 9.83805 33.1813 8.81805C34.5313 7.27805 35.8713 5.74805 37.6613 5.74805C39.4513 5.74805 40.8013 7.28805 42.1413 8.81805C43.0313 9.83805 43.9213 10.8581 44.3713 10.8581C44.8113 10.8581 45.7113 9.83805 46.6013 8.81805C47.9513 7.27805 49.2913 5.74805 51.0813 5.74805C52.8713 5.74805 54.2213 7.28805 55.5613 8.81805C56.4513 9.83805 57.3413 10.8581 57.7913 10.8581V13.9781C56.0013 13.9781 54.6513 12.4381 53.3113 10.9081C52.4213 9.88805 51.5313 8.86804 51.0813 8.86804C50.6313 8.86804 49.7413 9.88805 48.8513 10.9081C47.5113 12.4381 46.1613 13.9781 44.3713 13.9781C42.5813 13.9781 41.2313 12.4381 39.8913 10.9081C39.0013 9.88805 38.1113 8.86804 37.6613 8.86804C37.2113 8.86804 36.3213 9.88805 35.4313 10.9081C34.0813 12.4381 32.7413 13.9781 30.9513 13.9781C29.1613 13.9781 27.8113 12.4381 26.4713 10.9081C25.5813 9.88805 24.6913 8.86804 24.2413 8.86804C23.8013 8.86804 22.9013 9.88805 22.0113 10.9081C20.6713 12.4381 19.3213 13.9781 17.5313 13.9781C15.7413 13.9781 14.3913 12.4381 13.0513 10.9081C12.1613 9.88805 11.2713 8.86804 10.8213 8.86804C10.3813 8.86804 9.48133 9.88804 8.59133 10.898C7.25133 12.438 5.90133 13.968 4.11133 13.968V10.8581Z" fill="white"/>
<path fill-rule="evenodd" clip-rule="evenodd" d="M11.7514 52.2379C10.9114 52.2379 10.2314 51.5379 10.2314 50.6779C10.2314 49.8179 10.9114 49.1179 11.7514 49.1179H51.0614C51.9014 49.1179 52.5814 49.8179 52.5814 50.6779C52.5814 51.5379 51.9014 52.2379 51.0614 52.2379H11.7514Z" fill="white"/>
<path fill-rule="evenodd" clip-rule="evenodd" d="M44.8812 16.6381C45.6012 16.6381 46.2513 16.9381 46.7213 17.4181C47.1913 17.8981 47.4812 18.568 47.4812 19.308C47.4812 20.048 47.1913 20.7181 46.7213 21.1981C46.2513 21.6781 45.6012 21.9781 44.8812 21.9781C44.1612 21.9781 43.5112 21.6781 43.0412 21.1981C42.5712 20.7181 42.2812 20.048 42.2812 19.308C42.2812 18.568 42.5712 17.9081 43.0412 17.4181C43.5112 16.9381 44.1612 16.6381 44.8812 16.6381ZM46.0013 18.148C45.7113 17.858 45.3212 17.6681 44.8712 17.6681C44.4312 17.6681 44.0312 17.848 43.7412 18.148C43.4512 18.438 43.2712 18.848 43.2712 19.308C43.2712 19.758 43.4512 20.168 43.7412 20.468C44.0312 20.758 44.4312 20.9481 44.8712 20.9481C45.3112 20.9481 45.7113 20.768 46.0013 20.468C46.2913 20.178 46.4713 19.768 46.4713 19.308C46.4713 18.858 46.2913 18.448 46.0013 18.148Z" fill="white"/>
<path d="M30.7148 28.7153V31.3149H19.457L19.2744 29.2739L25.6768 19.0474H28.3301L25.4512 23.8169L22.54 28.7153H30.7148ZM29.0391 19.0474V34.688H25.6875V19.0474H29.0391ZM43.0576 25.4712V28.2534C43.0576 29.3993 42.9287 30.3911 42.6709 31.229C42.4202 32.0669 42.055 32.758 41.5752 33.3022C41.1025 33.8465 40.5368 34.2511 39.8779 34.5161C39.2262 34.7739 38.5029 34.9028 37.708 34.9028C37.0706 34.9028 36.4762 34.8205 35.9248 34.6558C35.3734 34.491 34.8757 34.2368 34.4316 33.8931C33.9948 33.5422 33.6188 33.1053 33.3037 32.5825C32.9886 32.0597 32.7451 31.4367 32.5732 30.7134C32.4085 29.9901 32.3262 29.1701 32.3262 28.2534V25.4712C32.3262 24.311 32.4515 23.3156 32.7021 22.4849C32.96 21.6541 33.3288 20.9666 33.8086 20.4224C34.2884 19.8781 34.8542 19.4771 35.5059 19.2192C36.1647 18.9614 36.8916 18.8325 37.6865 18.8325C38.3239 18.8325 38.9147 18.9149 39.459 19.0796C40.0104 19.2443 40.5081 19.4985 40.9521 19.8423C41.3962 20.186 41.7721 20.6193 42.0801 21.1421C42.3952 21.6649 42.6351 22.2879 42.7998 23.0112C42.9717 23.7274 43.0576 24.5474 43.0576 25.4712ZM39.7061 28.6724V25.0308C39.7061 24.4937 39.6738 24.0282 39.6094 23.6343C39.5521 23.2332 39.4661 22.8931 39.3516 22.6138C39.2441 22.3345 39.1081 22.1089 38.9434 21.937C38.7786 21.7651 38.5889 21.6398 38.374 21.561C38.1663 21.4751 37.9372 21.4321 37.6865 21.4321C37.3714 21.4321 37.0885 21.4966 36.8379 21.6255C36.5872 21.7544 36.376 21.9585 36.2041 22.2378C36.0322 22.5099 35.8997 22.8787 35.8066 23.3442C35.7207 23.8026 35.6777 24.3647 35.6777 25.0308V28.6724C35.6777 29.2095 35.7064 29.6785 35.7637 30.0796C35.8281 30.4806 35.9141 30.8244 36.0215 31.1108C36.1361 31.3901 36.2757 31.6193 36.4404 31.7983C36.6051 31.9702 36.7949 32.0955 37.0098 32.1743C37.2246 32.2531 37.4574 32.2925 37.708 32.2925C38.0231 32.2925 38.3024 32.2316 38.5459 32.1099C38.7894 31.981 38.9971 31.7769 39.1689 31.4976C39.348 31.2111 39.4805 30.8351 39.5664 30.3696C39.6595 29.9041 39.7061 29.3384 39.7061 28.6724Z" fill="white"/>
</svg>
