<svg width="61" height="45" viewBox="0 0 61 45" fill="none" xmlns="http://www.w3.org/2000/svg">
<path fill-rule="evenodd" clip-rule="evenodd" d="M57.2456 1.2281C57.4256 0.388098 58.2256 -0.151904 59.0456 0.0380957C59.8656 0.218096 60.3856 1.0481 60.2056 1.8881L51.4256 43.0981C51.2756 43.8281 50.6456 44.3281 49.9456 44.3281H10.3056C9.55562 44.3281 8.93562 43.7681 8.80562 43.0381L0.0356149 1.89811C-0.144385 1.05811 0.375619 0.228105 1.19562 0.0481055C2.01562 -0.131895 2.82562 0.398108 3.00562 1.23811L11.5256 41.2081H48.7156L57.2456 1.2281Z" fill="white"/>
<path fill-rule="evenodd" clip-rule="evenodd" d="M3.28516 11.198C3.72516 11.198 4.61516 10.168 5.49516 9.148C6.83516 7.598 8.16516 6.05799 9.95516 6.04799C11.7452 6.03799 13.1052 7.568 14.4552 9.088C15.3552 10.098 16.2552 11.118 16.6952 11.108C17.1352 11.108 18.0252 10.078 18.9152 9.058C20.2552 7.508 21.5852 5.968 23.3752 5.958C25.1652 5.948 26.5252 7.478 27.8752 8.998C28.7752 10.008 29.6752 11.028 30.1152 11.018C30.5552 11.018 31.4452 9.98797 32.3352 8.96797C33.6652 7.42797 35.0052 5.878 36.7952 5.868C38.5852 5.858 39.9452 7.38798 41.2952 8.90798C42.1952 9.91798 43.0952 10.938 43.5352 10.928C43.9752 10.928 44.8652 9.89798 45.7452 8.87798C47.0852 7.32798 48.4152 5.788 50.2152 5.778C52.0052 5.768 53.3652 7.29798 54.7152 8.81798C55.6152 9.82798 56.5152 10.848 56.9552 10.838L56.9752 13.958C55.1852 13.968 53.8252 12.438 52.4752 10.918C51.5752 9.90799 50.6752 8.888 50.2352 8.898C49.7952 8.898 48.9052 9.92799 48.0152 10.948C46.6752 12.488 45.3452 14.038 43.5552 14.048C41.7652 14.058 40.4052 12.528 39.0552 11.008C38.1552 9.99798 37.2552 8.97799 36.8152 8.98799C36.3752 8.98799 35.4852 10.018 34.6052 11.038C33.2652 12.578 31.9352 14.128 30.1452 14.138C28.3552 14.148 26.9952 12.618 25.6452 11.098C24.7452 10.088 23.8452 9.06799 23.4052 9.07799C22.9652 9.07799 22.0752 10.108 21.1852 11.128C19.8452 12.668 18.5152 14.218 16.7252 14.228C14.9352 14.238 13.5752 12.708 12.2252 11.188C11.3252 10.178 10.4252 9.15799 9.98516 9.16799C9.54516 9.16799 8.65516 10.198 7.76516 11.218C6.42516 12.758 5.09516 14.308 3.30516 14.318L3.28516 11.198Z" fill="white"/>
<path fill-rule="evenodd" clip-rule="evenodd" d="M44.0453 16.8081C44.7653 16.8081 45.4153 17.1081 45.8853 17.5881C46.3553 18.0681 46.6453 18.7381 46.6453 19.4781C46.6453 20.2181 46.3553 20.8881 45.8853 21.3681C45.4153 21.8481 44.7653 22.1481 44.0453 22.1481C43.3253 22.1481 42.6753 21.8481 42.2053 21.3681C41.7353 20.8881 41.4453 20.2181 41.4453 19.4781C41.4453 18.7381 41.7353 18.0781 42.2053 17.5881C42.6753 17.1081 43.3353 16.8081 44.0453 16.8081ZM45.1753 18.3181C44.8853 18.0281 44.4953 17.8381 44.0453 17.8381C43.6053 17.8381 43.2053 18.0181 42.9153 18.3181C42.6253 18.6081 42.4553 19.0181 42.4553 19.4781C42.4553 19.9281 42.6353 20.3381 42.9153 20.6381C43.2053 20.9281 43.5953 21.1181 44.0453 21.1181C44.4853 21.1181 44.8853 20.9381 45.1753 20.6381C45.4653 20.3481 45.6353 19.9381 45.6353 19.4781C45.6453 19.0281 45.4653 18.6181 45.1753 18.3181Z" fill="white"/>
<path d="M20.8828 27.8112L18.2188 27.1774L19.1318 19.2174H28.0908V21.8707H21.8818L21.5059 25.1686C21.6992 25.054 22.0036 24.9287 22.4189 24.7926C22.8343 24.6494 23.2998 24.5778 23.8154 24.5778C24.5817 24.5778 25.262 24.6959 25.8564 24.9323C26.4508 25.1686 26.9521 25.5123 27.3604 25.9635C27.7757 26.4075 28.0872 26.9554 28.2949 27.6071C28.5098 28.2587 28.6172 29 28.6172 29.8307C28.6172 30.5182 28.5098 31.177 28.2949 31.8073C28.0801 32.4303 27.7507 32.9889 27.3066 33.483C26.8698 33.97 26.3148 34.3567 25.6416 34.6432C24.9684 34.9296 24.1771 35.0729 23.2676 35.0729C22.5801 35.0729 21.9141 34.969 21.2695 34.7614C20.625 34.5537 20.0449 34.2529 19.5293 33.859C19.0208 33.458 18.6162 32.971 18.3154 32.3981C18.0218 31.8252 17.8714 31.1806 17.8643 30.4645H21.2158C21.2516 30.8798 21.3555 31.2379 21.5273 31.5387C21.6992 31.8323 21.932 32.0615 22.2256 32.2262C22.5192 32.3837 22.8594 32.4625 23.2461 32.4625C23.6185 32.4625 23.9336 32.3909 24.1914 32.2477C24.4492 32.0973 24.6533 31.8932 24.8037 31.6354C24.9613 31.3776 25.0758 31.0768 25.1475 30.733C25.2191 30.3893 25.2549 30.0205 25.2549 29.6266C25.2549 29.2184 25.2083 28.8531 25.1152 28.5309C25.0221 28.2015 24.8789 27.9222 24.6855 27.693C24.4922 27.4567 24.2451 27.2776 23.9443 27.1559C23.6507 27.027 23.2962 26.9625 22.8809 26.9625C22.3366 26.9625 21.9105 27.052 21.6025 27.2311C21.2946 27.4101 21.0547 27.6035 20.8828 27.8112ZM41.2715 25.6412V28.4235C41.2715 29.5693 41.1426 30.5612 40.8848 31.399C40.6341 32.2369 40.2689 32.928 39.7891 33.4723C39.3164 34.0166 38.7507 34.4212 38.0918 34.6862C37.4401 34.944 36.7168 35.0729 35.9219 35.0729C35.2845 35.0729 34.6901 34.9905 34.1387 34.8258C33.5872 34.6611 33.0895 34.4069 32.6455 34.0631C32.2087 33.7122 31.8327 33.2753 31.5176 32.7526C31.2025 32.2298 30.959 31.6067 30.7871 30.8834C30.6224 30.1601 30.54 29.3401 30.54 28.4235V25.6412C30.54 24.4811 30.6654 23.4856 30.916 22.6549C31.1738 21.8242 31.5426 21.1367 32.0225 20.5924C32.5023 20.0481 33.068 19.6471 33.7197 19.3893C34.3786 19.1315 35.1055 19.0026 35.9004 19.0026C36.5378 19.0026 37.1286 19.0849 37.6729 19.2496C38.2243 19.4143 38.722 19.6686 39.166 20.0123C39.61 20.3561 39.986 20.7893 40.2939 21.3121C40.609 21.8349 40.849 22.458 41.0137 23.1813C41.1855 23.8974 41.2715 24.7174 41.2715 25.6412ZM37.9199 28.8424V25.2008C37.9199 24.6637 37.8877 24.1982 37.8232 23.8043C37.766 23.4033 37.68 23.0631 37.5654 22.7838C37.458 22.5045 37.3219 22.2789 37.1572 22.1071C36.9925 21.9352 36.8027 21.8099 36.5879 21.7311C36.3802 21.6451 36.151 21.6022 35.9004 21.6022C35.5853 21.6022 35.3024 21.6666 35.0518 21.7955C34.8011 21.9244 34.5898 22.1285 34.418 22.4078C34.2461 22.68 34.1136 23.0488 34.0205 23.5143C33.9346 23.9726 33.8916 24.5348 33.8916 25.2008V28.8424C33.8916 29.3795 33.9202 29.8486 33.9775 30.2496C34.042 30.6507 34.1279 30.9944 34.2354 31.2809C34.3499 31.5602 34.4896 31.7893 34.6543 31.9684C34.819 32.1403 35.0088 32.2656 35.2236 32.3444C35.4385 32.4231 35.6712 32.4625 35.9219 32.4625C36.237 32.4625 36.5163 32.4017 36.7598 32.2799C37.0033 32.151 37.2109 31.9469 37.3828 31.6676C37.5618 31.3811 37.6943 31.0052 37.7803 30.5397C37.8734 30.0742 37.9199 29.5084 37.9199 28.8424Z" fill="white"/>
</svg>
