<svg width="61" height="45" viewBox="0 0 61 45" fill="none" xmlns="http://www.w3.org/2000/svg">
<path fill-rule="evenodd" clip-rule="evenodd" d="M57.2456 1.2281C57.4256 0.388098 58.2256 -0.151904 59.0456 0.0380957C59.8656 0.218096 60.3856 1.0481 60.2056 1.8881L51.4256 43.0981C51.2756 43.8281 50.6456 44.3281 49.9456 44.3281H10.3056C9.55562 44.3281 8.93562 43.7681 8.80562 43.0381L0.0356149 1.89811C-0.144385 1.05811 0.375619 0.228105 1.19562 0.0481055C2.01562 -0.131895 2.82562 0.398108 3.00562 1.23811L11.5256 41.2081H48.7156L57.2456 1.2281Z" fill="white"/>
<path fill-rule="evenodd" clip-rule="evenodd" d="M3.28516 11.198C3.72516 11.198 4.61516 10.168 5.49516 9.148C6.83516 7.598 8.16516 6.05799 9.95516 6.04799C11.7452 6.03799 13.1052 7.568 14.4552 9.088C15.3552 10.098 16.2552 11.118 16.6952 11.108C17.1352 11.108 18.0252 10.078 18.9152 9.058C20.2552 7.508 21.5852 5.968 23.3752 5.958C25.1652 5.948 26.5252 7.478 27.8752 8.998C28.7752 10.008 29.6752 11.028 30.1152 11.018C30.5552 11.018 31.4452 9.98797 32.3352 8.96797C33.6652 7.42797 35.0052 5.878 36.7952 5.868C38.5852 5.858 39.9452 7.38798 41.2952 8.90798C42.1952 9.91798 43.0952 10.938 43.5352 10.928C43.9752 10.928 44.8652 9.89798 45.7452 8.87798C47.0852 7.32798 48.4152 5.788 50.2152 5.778C52.0052 5.768 53.3652 7.29798 54.7152 8.81798C55.6152 9.82798 56.5152 10.848 56.9552 10.838L56.9752 13.958C55.1852 13.968 53.8252 12.438 52.4752 10.918C51.5752 9.90799 50.6752 8.888 50.2352 8.898C49.7952 8.898 48.9052 9.92799 48.0152 10.948C46.6752 12.488 45.3452 14.038 43.5552 14.048C41.7652 14.058 40.4052 12.528 39.0552 11.008C38.1552 9.99798 37.2552 8.97799 36.8152 8.98799C36.3752 8.98799 35.4852 10.018 34.6052 11.038C33.2652 12.578 31.9352 14.128 30.1452 14.138C28.3552 14.148 26.9952 12.618 25.6452 11.098C24.7452 10.088 23.8452 9.06799 23.4052 9.07799C22.9652 9.07799 22.0752 10.108 21.1852 11.128C19.8452 12.668 18.5152 14.218 16.7252 14.228C14.9352 14.238 13.5752 12.708 12.2252 11.188C11.3252 10.178 10.4252 9.15799 9.98516 9.16799C9.54516 9.16799 8.65516 10.198 7.76516 11.218C6.42516 12.758 5.09516 14.308 3.30516 14.318L3.28516 11.198Z" fill="white"/>
<path fill-rule="evenodd" clip-rule="evenodd" d="M44.0453 16.8081C44.7653 16.8081 45.4153 17.1081 45.8853 17.5881C46.3553 18.0681 46.6453 18.7381 46.6453 19.4781C46.6453 20.2181 46.3553 20.8881 45.8853 21.3681C45.4153 21.8481 44.7653 22.1481 44.0453 22.1481C43.3253 22.1481 42.6753 21.8481 42.2053 21.3681C41.7353 20.8881 41.4453 20.2181 41.4453 19.4781C41.4453 18.7381 41.7353 18.0781 42.2053 17.5881C42.6753 17.1081 43.3353 16.8081 44.0453 16.8081ZM45.1753 18.3181C44.8853 18.0281 44.4953 17.8381 44.0453 17.8381C43.6053 17.8381 43.2053 18.0181 42.9153 18.3181C42.6253 18.6081 42.4553 19.0181 42.4553 19.4781C42.4553 19.9281 42.6353 20.3381 42.9153 20.6381C43.2053 20.9281 43.5953 21.1181 44.0453 21.1181C44.4853 21.1181 44.8853 20.9381 45.1753 20.6381C45.4653 20.3481 45.6353 19.9381 45.6353 19.4781C45.6453 19.0281 45.4653 18.6181 45.1753 18.3181Z" fill="white"/>
<path d="M25.9531 19.024H26.4688V21.6881H26.2754C25.5234 21.6881 24.8359 21.7955 24.2129 22.0104C23.597 22.2252 23.0635 22.5439 22.6123 22.9664C22.1611 23.3818 21.8138 23.8974 21.5703 24.5133C21.334 25.122 21.2158 25.8239 21.2158 26.6188V29.2828C21.2158 29.8199 21.2624 30.289 21.3555 30.6901C21.4557 31.0839 21.599 31.4134 21.7852 31.6783C21.9785 31.9362 22.2113 32.1331 22.4834 32.2692C22.7555 32.3981 23.0635 32.4625 23.4072 32.4625C23.7152 32.4625 23.998 32.3945 24.2559 32.2584C24.5137 32.1224 24.7357 31.929 24.9219 31.6783C25.1081 31.4277 25.2513 31.1377 25.3516 30.8082C25.4518 30.4716 25.502 30.1064 25.502 29.7125C25.502 29.2972 25.4482 28.9212 25.3408 28.5846C25.2406 28.2408 25.0938 27.9472 24.9004 27.7037C24.7142 27.4602 24.485 27.274 24.2129 27.1451C23.9408 27.0091 23.64 26.941 23.3105 26.941C22.8379 26.941 22.4297 27.0485 22.0859 27.2633C21.7422 27.4781 21.4772 27.7539 21.291 28.0905C21.1048 28.427 21.0081 28.7708 21.001 29.1217L20.1094 28.3805C20.1094 27.8935 20.2061 27.4137 20.3994 26.941C20.5999 26.4612 20.8828 26.028 21.248 25.6412C21.6133 25.2474 22.0609 24.9358 22.5908 24.7067C23.1279 24.4703 23.7402 24.3522 24.4277 24.3522C25.151 24.3522 25.7884 24.4918 26.3398 24.7711C26.8913 25.0433 27.3532 25.4228 27.7256 25.9098C28.1051 26.3968 28.388 26.9661 28.5742 27.6178C28.7676 28.2623 28.8643 28.9534 28.8643 29.691C28.8643 30.4502 28.7318 31.1591 28.4668 31.818C28.209 32.4697 27.8438 33.039 27.3711 33.526C26.8984 34.013 26.3327 34.3925 25.6738 34.6647C25.0221 34.9368 24.2952 35.0729 23.4932 35.0729C22.6624 35.0729 21.9033 34.9261 21.2158 34.6324C20.5355 34.3388 19.9411 33.9199 19.4326 33.3756C18.9313 32.8242 18.541 32.1653 18.2617 31.399C17.9896 30.6328 17.8535 29.7734 17.8535 28.8209V27.5641C17.8535 26.2607 18.054 25.0862 18.4551 24.0406C18.8633 22.9951 19.429 22.0999 20.1523 21.3551C20.8828 20.6031 21.7422 20.0267 22.7305 19.6256C23.7188 19.2246 24.793 19.024 25.9531 19.024ZM41.2715 25.6412V28.4235C41.2715 29.5693 41.1426 30.5612 40.8848 31.399C40.6341 32.2369 40.2689 32.928 39.7891 33.4723C39.3164 34.0166 38.7507 34.4212 38.0918 34.6862C37.4401 34.944 36.7168 35.0729 35.9219 35.0729C35.2845 35.0729 34.6901 34.9905 34.1387 34.8258C33.5872 34.6611 33.0895 34.4069 32.6455 34.0631C32.2087 33.7122 31.8327 33.2753 31.5176 32.7526C31.2025 32.2298 30.959 31.6067 30.7871 30.8834C30.6224 30.1601 30.54 29.3401 30.54 28.4235V25.6412C30.54 24.4811 30.6654 23.4856 30.916 22.6549C31.1738 21.8242 31.5426 21.1367 32.0225 20.5924C32.5023 20.0481 33.068 19.6471 33.7197 19.3893C34.3786 19.1315 35.1055 19.0026 35.9004 19.0026C36.5378 19.0026 37.1286 19.0849 37.6729 19.2496C38.2243 19.4143 38.722 19.6686 39.166 20.0123C39.61 20.3561 39.986 20.7893 40.2939 21.3121C40.609 21.8349 40.849 22.458 41.0137 23.1813C41.1855 23.8974 41.2715 24.7174 41.2715 25.6412ZM37.9199 28.8424V25.2008C37.9199 24.6637 37.8877 24.1982 37.8232 23.8043C37.766 23.4033 37.68 23.0631 37.5654 22.7838C37.458 22.5045 37.3219 22.2789 37.1572 22.1071C36.9925 21.9352 36.8027 21.8099 36.5879 21.7311C36.3802 21.6451 36.151 21.6022 35.9004 21.6022C35.5853 21.6022 35.3024 21.6666 35.0518 21.7955C34.8011 21.9244 34.5898 22.1285 34.418 22.4078C34.2461 22.68 34.1136 23.0488 34.0205 23.5143C33.9346 23.9726 33.8916 24.5348 33.8916 25.2008V28.8424C33.8916 29.3795 33.9202 29.8486 33.9775 30.2496C34.042 30.6507 34.1279 30.9944 34.2354 31.2809C34.3499 31.5602 34.4896 31.7893 34.6543 31.9684C34.819 32.1403 35.0088 32.2656 35.2236 32.3444C35.4385 32.4231 35.6712 32.4625 35.9219 32.4625C36.237 32.4625 36.5163 32.4017 36.7598 32.2799C37.0033 32.151 37.2109 31.9469 37.3828 31.6676C37.5618 31.3811 37.6943 31.0052 37.7803 30.5397C37.8734 30.0742 37.9199 29.5084 37.9199 28.8424Z" fill="white"/>
</svg>
