<svg width="61" height="53" viewBox="0 0 61 53" fill="none" xmlns="http://www.w3.org/2000/svg">
<path fill-rule="evenodd" clip-rule="evenodd" d="M57.2456 1.2281C57.4256 0.388098 58.2256 -0.151904 59.0456 0.0380957C59.8656 0.218096 60.3856 1.0481 60.2056 1.8881L51.4256 43.0981C51.2756 43.8281 50.6456 44.3281 49.9456 44.3281H10.3056C9.55561 44.3281 8.92561 43.7681 8.80561 43.0381L0.0356149 1.89808C-0.144385 1.05808 0.375619 0.228075 1.19562 0.0480749C2.01562 -0.131925 2.82561 0.398077 2.99561 1.23808L11.5156 41.2081H48.7156L57.2456 1.2281Z" fill="white"/>
<path fill-rule="evenodd" clip-rule="evenodd" d="M3.28564 10.8581C3.72564 10.8581 4.62565 9.83805 5.51565 8.81805C6.85565 7.27805 8.20564 5.74805 9.99564 5.74805C11.7856 5.74805 13.1356 7.28805 14.4756 8.81805C15.3656 9.83805 16.2557 10.8581 16.7057 10.8581C17.1457 10.8581 18.0456 9.83805 18.9356 8.81805C20.2756 7.27805 21.6256 5.74805 23.4156 5.74805C25.2056 5.74805 26.5557 7.28805 27.8957 8.81805C28.7857 9.83805 29.6756 10.8581 30.1256 10.8581C30.5656 10.8581 31.4656 9.83805 32.3556 8.81805C33.7056 7.27805 35.0456 5.74805 36.8356 5.74805C38.6256 5.74805 39.9757 7.28805 41.3157 8.81805C42.2057 9.83805 43.0956 10.8581 43.5456 10.8581C43.9856 10.8581 44.8856 9.83805 45.7756 8.81805C47.1256 7.27805 48.4656 5.74805 50.2556 5.74805C52.0456 5.74805 53.3956 7.28805 54.7356 8.81805C55.6256 9.83805 56.5156 10.8581 56.9656 10.8581V13.9781C55.1756 13.9781 53.8256 12.4381 52.4856 10.9081C51.5956 9.88805 50.7056 8.86804 50.2556 8.86804C49.8056 8.86804 48.9156 9.88805 48.0256 10.9081C46.6856 12.4381 45.3356 13.9781 43.5456 13.9781C41.7556 13.9781 40.4057 12.4381 39.0657 10.9081C38.1757 9.88805 37.2856 8.86804 36.8356 8.86804C36.3856 8.86804 35.4956 9.88805 34.6056 10.9081C33.2556 12.4381 31.9156 13.9781 30.1256 13.9781C28.3356 13.9781 26.9857 12.4381 25.6457 10.9081C24.7557 9.88805 23.8656 8.86804 23.4156 8.86804C22.9756 8.86804 22.0756 9.88805 21.1856 10.9081C19.8456 12.4381 18.4957 13.9781 16.7057 13.9781C14.9157 13.9781 13.5656 12.4381 12.2256 10.9081C11.3356 9.88805 10.4456 8.86804 9.99564 8.86804C9.55564 8.86804 8.65565 9.88804 7.76565 10.898C6.42565 12.438 5.07564 13.968 3.28564 13.968V10.8581Z" fill="white"/>
<path fill-rule="evenodd" clip-rule="evenodd" d="M10.9258 52.2379C10.0858 52.2379 9.40576 51.5379 9.40576 50.6779C9.40576 49.8179 10.0858 49.1179 10.9258 49.1179H50.2358C51.0758 49.1179 51.7558 49.8179 51.7558 50.6779C51.7558 51.5379 51.0758 52.2379 50.2358 52.2379H10.9258Z" fill="white"/>
<path fill-rule="evenodd" clip-rule="evenodd" d="M44.056 16.6381C44.776 16.6381 45.4261 16.9381 45.8961 17.4181C46.3661 17.8981 46.6561 18.568 46.6561 19.308C46.6561 20.048 46.3661 20.7181 45.8961 21.1981C45.4261 21.6781 44.776 21.9781 44.056 21.9781C43.336 21.9781 42.686 21.6781 42.216 21.1981C41.746 20.7181 41.4561 20.048 41.4561 19.308C41.4561 18.568 41.746 17.9081 42.216 17.4181C42.686 16.9381 43.336 16.6381 44.056 16.6381ZM45.1761 18.148C44.8861 17.858 44.4961 17.6681 44.0461 17.6681C43.6061 17.6681 43.206 17.848 42.916 18.148C42.626 18.438 42.446 18.848 42.446 19.308C42.446 19.758 42.626 20.168 42.916 20.468C43.206 20.758 43.6061 20.9481 44.0461 20.9481C44.4861 20.9481 44.8861 20.768 45.1761 20.468C45.4661 20.178 45.6461 19.768 45.6461 19.308C45.6461 18.858 45.4661 18.448 45.1761 18.148Z" fill="white"/>
<path d="M26.9136 18.854H27.4292V21.5181H27.2358C26.4839 21.5181 25.7964 21.6255 25.1733 21.8403C24.5575 22.0552 24.0239 22.3739 23.5728 22.7964C23.1216 23.2118 22.7743 23.7274 22.5308 24.3433C22.2944 24.952 22.1763 25.6538 22.1763 26.4487V29.1128C22.1763 29.6499 22.2228 30.119 22.3159 30.52C22.4162 30.9139 22.5594 31.2433 22.7456 31.5083C22.939 31.7661 23.1717 31.9631 23.4438 32.0991C23.716 32.228 24.0239 32.2925 24.3677 32.2925C24.6756 32.2925 24.9585 32.2244 25.2163 32.0884C25.4741 31.9523 25.6961 31.759 25.8823 31.5083C26.0685 31.2576 26.2118 30.9676 26.312 30.6382C26.4123 30.3016 26.4624 29.9364 26.4624 29.5425C26.4624 29.1271 26.4087 28.7511 26.3013 28.4146C26.201 28.0708 26.0542 27.7772 25.8608 27.5337C25.6746 27.2902 25.4455 27.104 25.1733 26.9751C24.9012 26.839 24.6004 26.771 24.271 26.771C23.7983 26.771 23.3901 26.8784 23.0464 27.0933C22.7026 27.3081 22.4377 27.5838 22.2515 27.9204C22.0653 28.257 21.9686 28.6007 21.9614 28.9517L21.0698 28.2104C21.0698 27.7235 21.1665 27.2437 21.3599 26.771C21.5604 26.2912 21.8433 25.8579 22.2085 25.4712C22.5737 25.0773 23.0213 24.7658 23.5513 24.5366C24.0884 24.3003 24.7007 24.1821 25.3882 24.1821C26.1115 24.1821 26.7489 24.3218 27.3003 24.6011C27.8517 24.8732 28.3136 25.2528 28.686 25.7397C29.0656 26.2267 29.3485 26.7961 29.5347 27.4478C29.728 28.0923 29.8247 28.7834 29.8247 29.521C29.8247 30.2801 29.6922 30.9891 29.4272 31.6479C29.1694 32.2996 28.8042 32.869 28.3315 33.356C27.8589 33.8429 27.2931 34.2225 26.6343 34.4946C25.9826 34.7668 25.2557 34.9028 24.4536 34.9028C23.6229 34.9028 22.8638 34.756 22.1763 34.4624C21.4959 34.1688 20.9015 33.7498 20.3931 33.2056C19.8918 32.6541 19.5015 31.9953 19.2222 31.229C18.95 30.4627 18.814 29.6034 18.814 28.6509V27.394C18.814 26.0907 19.0145 24.9162 19.4155 23.8706C19.8237 22.825 20.3895 21.9299 21.1128 21.1851C21.8433 20.4331 22.7026 19.8566 23.6909 19.4556C24.6792 19.0545 25.7534 18.854 26.9136 18.854ZM42.2319 25.4712V28.2534C42.2319 29.3993 42.103 30.3911 41.8452 31.229C41.5946 32.0669 41.2293 32.758 40.7495 33.3022C40.2769 33.8465 39.7111 34.2511 39.0522 34.5161C38.4006 34.7739 37.6772 34.9028 36.8823 34.9028C36.245 34.9028 35.6506 34.8205 35.0991 34.6558C34.5477 34.491 34.05 34.2368 33.606 33.8931C33.1691 33.5422 32.7931 33.1053 32.478 32.5825C32.1629 32.0597 31.9194 31.4367 31.7476 30.7134C31.5828 29.9901 31.5005 29.1701 31.5005 28.2534V25.4712C31.5005 24.311 31.6258 23.3156 31.8765 22.4849C32.1343 21.6541 32.5031 20.9666 32.9829 20.4224C33.4627 19.8781 34.0285 19.4771 34.6802 19.2192C35.339 18.9614 36.0659 18.8325 36.8608 18.8325C37.4982 18.8325 38.089 18.9149 38.6333 19.0796C39.1847 19.2443 39.6825 19.4985 40.1265 19.8423C40.5705 20.186 40.9465 20.6193 41.2544 21.1421C41.5695 21.6649 41.8094 22.2879 41.9741 23.0112C42.146 23.7274 42.2319 24.5474 42.2319 25.4712ZM38.8804 28.6724V25.0308C38.8804 24.4937 38.8481 24.0282 38.7837 23.6343C38.7264 23.2332 38.6405 22.8931 38.5259 22.6138C38.4185 22.3345 38.2824 22.1089 38.1177 21.937C37.953 21.7651 37.7632 21.6398 37.5483 21.561C37.3407 21.4751 37.1115 21.4321 36.8608 21.4321C36.5457 21.4321 36.2629 21.4966 36.0122 21.6255C35.7616 21.7544 35.5503 21.9585 35.3784 22.2378C35.2065 22.5099 35.0741 22.8787 34.981 23.3442C34.895 23.8026 34.8521 24.3647 34.8521 25.0308V28.6724C34.8521 29.2095 34.8807 29.6785 34.938 30.0796C35.0024 30.4806 35.0884 30.8244 35.1958 31.1108C35.3104 31.3901 35.45 31.6193 35.6147 31.7983C35.7795 31.9702 35.9692 32.0955 36.1841 32.1743C36.3989 32.2531 36.6317 32.2925 36.8823 32.2925C37.1974 32.2925 37.4767 32.2316 37.7202 32.1099C37.9637 31.981 38.1714 31.7769 38.3433 31.4976C38.5223 31.2111 38.6548 30.8351 38.7407 30.3696C38.8338 29.9041 38.8804 29.3384 38.8804 28.6724Z" fill="white"/>
</svg>
