<svg width="61" height="45" viewBox="0 0 61 45" fill="none" xmlns="http://www.w3.org/2000/svg">
<path fill-rule="evenodd" clip-rule="evenodd" d="M57.2456 1.2281C57.4256 0.388098 58.2256 -0.151904 59.0456 0.0380957C59.8656 0.218096 60.3856 1.0481 60.2056 1.8881L51.4256 43.0981C51.2756 43.8281 50.6456 44.3281 49.9456 44.3281H10.3056C9.55562 44.3281 8.93562 43.7681 8.80562 43.0381L0.0356149 1.89811C-0.144385 1.05811 0.375619 0.228105 1.19562 0.0481055C2.01562 -0.131895 2.82562 0.398108 3.00562 1.23811L11.5256 41.2081H48.7156L57.2456 1.2281Z" fill="white"/>
<path fill-rule="evenodd" clip-rule="evenodd" d="M3.28516 11.198C3.72516 11.198 4.61516 10.168 5.49516 9.148C6.83516 7.598 8.16516 6.05799 9.95516 6.04799C11.7452 6.03799 13.1052 7.568 14.4552 9.088C15.3552 10.098 16.2552 11.118 16.6952 11.108C17.1352 11.108 18.0252 10.078 18.9152 9.058C20.2552 7.508 21.5852 5.968 23.3752 5.958C25.1652 5.948 26.5252 7.478 27.8752 8.998C28.7752 10.008 29.6752 11.028 30.1152 11.018C30.5552 11.018 31.4452 9.98797 32.3352 8.96797C33.6652 7.42797 35.0052 5.878 36.7952 5.868C38.5852 5.858 39.9452 7.38798 41.2952 8.90798C42.1952 9.91798 43.0952 10.938 43.5352 10.928C43.9752 10.928 44.8652 9.89798 45.7452 8.87798C47.0852 7.32798 48.4152 5.788 50.2152 5.778C52.0052 5.768 53.3652 7.29798 54.7152 8.81798C55.6152 9.82798 56.5152 10.848 56.9552 10.838L56.9752 13.958C55.1852 13.968 53.8252 12.438 52.4752 10.918C51.5752 9.90799 50.6752 8.888 50.2352 8.898C49.7952 8.898 48.9052 9.92799 48.0152 10.948C46.6752 12.488 45.3452 14.038 43.5552 14.048C41.7652 14.058 40.4052 12.528 39.0552 11.008C38.1552 9.99798 37.2552 8.97799 36.8152 8.98799C36.3752 8.98799 35.4852 10.018 34.6052 11.038C33.2652 12.578 31.9352 14.128 30.1452 14.138C28.3552 14.148 26.9952 12.618 25.6452 11.098C24.7452 10.088 23.8452 9.06799 23.4052 9.07799C22.9652 9.07799 22.0752 10.108 21.1852 11.128C19.8452 12.668 18.5152 14.218 16.7252 14.228C14.9352 14.238 13.5752 12.708 12.2252 11.188C11.3252 10.178 10.4252 9.15799 9.98516 9.16799C9.54516 9.16799 8.65516 10.198 7.76516 11.218C6.42516 12.758 5.09516 14.308 3.30516 14.318L3.28516 11.198Z" fill="white"/>
<path fill-rule="evenodd" clip-rule="evenodd" d="M44.0453 16.8081C44.7653 16.8081 45.4153 17.1081 45.8853 17.5881C46.3553 18.0681 46.6453 18.7381 46.6453 19.4781C46.6453 20.2181 46.3553 20.8881 45.8853 21.3681C45.4153 21.8481 44.7653 22.1481 44.0453 22.1481C43.3253 22.1481 42.6753 21.8481 42.2053 21.3681C41.7353 20.8881 41.4453 20.2181 41.4453 19.4781C41.4453 18.7381 41.7353 18.0781 42.2053 17.5881C42.6753 17.1081 43.3353 16.8081 44.0453 16.8081ZM45.1753 18.3181C44.8853 18.0281 44.4953 17.8381 44.0453 17.8381C43.6053 17.8381 43.2053 18.0181 42.9153 18.3181C42.6253 18.6081 42.4553 19.0181 42.4553 19.4781C42.4553 19.9281 42.6353 20.3381 42.9153 20.6381C43.2053 20.9281 43.5953 21.1181 44.0453 21.1181C44.4853 21.1181 44.8853 20.9381 45.1753 20.6381C45.4653 20.3481 45.6353 19.9381 45.6353 19.4781C45.6453 19.0281 45.4653 18.6181 45.1753 18.3181Z" fill="white"/>
<path d="M20.1201 32.3336H20.335C21.1227 32.3336 21.8138 32.2441 22.4082 32.0651C23.0026 31.8789 23.5003 31.6031 23.9014 31.2379C24.3096 30.8655 24.6175 30.4036 24.8252 29.8522C25.0329 29.2936 25.1367 28.6347 25.1367 27.8756V24.7819C25.1367 24.2448 25.0866 23.7793 24.9863 23.3854C24.8932 22.9843 24.7536 22.6513 24.5674 22.3864C24.3812 22.1214 24.1628 21.9244 23.9121 21.7955C23.6615 21.6666 23.3857 21.6022 23.085 21.6022C22.7699 21.6022 22.4906 21.6845 22.2471 21.8492C22.0107 22.014 21.8066 22.236 21.6348 22.5153C21.4629 22.7946 21.334 23.1097 21.248 23.4606C21.1621 23.8115 21.1191 24.1696 21.1191 24.5348C21.1191 24.9287 21.1621 25.2975 21.248 25.6412C21.3411 25.985 21.4736 26.2858 21.6455 26.5436C21.8174 26.8014 22.0358 27.0055 22.3008 27.1559C22.5658 27.2991 22.8737 27.3707 23.2246 27.3707C23.5755 27.3707 23.8799 27.3063 24.1377 27.1774C24.4027 27.0485 24.6247 26.8766 24.8037 26.6617C24.9899 26.4469 25.1296 26.2142 25.2227 25.9635C25.3158 25.7057 25.3623 25.4515 25.3623 25.2008L26.3936 25.8883C26.3936 26.3681 26.2861 26.8408 26.0713 27.3063C25.8636 27.7718 25.5736 28.1943 25.2012 28.5739C24.8288 28.9534 24.3955 29.2578 23.9014 29.4869C23.4144 29.7089 22.8952 29.8199 22.3438 29.8199C21.6276 29.8199 20.9831 29.691 20.4102 29.4332C19.8444 29.1754 19.3646 28.8138 18.9707 28.3483C18.5768 27.8756 18.276 27.317 18.0684 26.6725C17.8607 26.028 17.7568 25.319 17.7568 24.5455C17.7568 23.7864 17.8857 23.0739 18.1436 22.4078C18.4014 21.7347 18.7666 21.1438 19.2393 20.6354C19.7119 20.1269 20.2741 19.7259 20.9258 19.4323C21.5846 19.1386 22.3115 18.9918 23.1064 18.9918C23.887 18.9918 24.6032 19.1422 25.2549 19.443C25.9066 19.7366 26.4759 20.1591 26.9629 20.7106C27.4499 21.262 27.8258 21.9316 28.0908 22.7194C28.363 23.5071 28.499 24.3951 28.499 25.3834V26.5436C28.499 27.6035 28.3773 28.5774 28.1338 29.4655C27.8903 30.3535 27.5322 31.1412 27.0596 31.8287C26.5941 32.5162 26.0283 33.0999 25.3623 33.5797C24.7035 34.0595 23.9551 34.4248 23.1172 34.6754C22.2865 34.9189 21.377 35.0406 20.3887 35.0406H20.1201V32.3336ZM33.5801 27.8112L30.916 27.1774L31.8291 19.2174H40.7881V21.8707H34.5791L34.2031 25.1686C34.3965 25.054 34.7008 24.9287 35.1162 24.7926C35.5316 24.6494 35.9971 24.5778 36.5127 24.5778C37.279 24.5778 37.9593 24.6959 38.5537 24.9323C39.1481 25.1686 39.6494 25.5123 40.0576 25.9635C40.473 26.4075 40.7845 26.9554 40.9922 27.6071C41.207 28.2587 41.3145 29 41.3145 29.8307C41.3145 30.5182 41.207 31.177 40.9922 31.8073C40.7773 32.4303 40.4479 32.9889 40.0039 33.483C39.5671 33.97 39.012 34.3567 38.3389 34.6432C37.6657 34.9296 36.8743 35.0729 35.9648 35.0729C35.2773 35.0729 34.6113 34.969 33.9668 34.7614C33.3223 34.5537 32.7422 34.2529 32.2266 33.859C31.7181 33.458 31.3135 32.971 31.0127 32.3981C30.7191 31.8252 30.5687 31.1806 30.5615 30.4645H33.9131C33.9489 30.8798 34.0527 31.2379 34.2246 31.5387C34.3965 31.8323 34.6292 32.0615 34.9229 32.2262C35.2165 32.3837 35.5566 32.4625 35.9434 32.4625C36.3158 32.4625 36.6309 32.3909 36.8887 32.2477C37.1465 32.0973 37.3506 31.8932 37.501 31.6354C37.6585 31.3776 37.7731 31.0768 37.8447 30.733C37.9163 30.3893 37.9521 30.0205 37.9521 29.6266C37.9521 29.2184 37.9056 28.8531 37.8125 28.5309C37.7194 28.2015 37.5762 27.9222 37.3828 27.693C37.1895 27.4567 36.9424 27.2776 36.6416 27.1559C36.348 27.027 35.9935 26.9625 35.5781 26.9625C35.0339 26.9625 34.6077 27.052 34.2998 27.2311C33.9919 27.4101 33.752 27.6035 33.5801 27.8112Z" fill="white"/>
</svg>
