<svg width="61" height="53" viewBox="0 0 61 53" fill="none" xmlns="http://www.w3.org/2000/svg">
<path fill-rule="evenodd" clip-rule="evenodd" d="M57.2456 1.2281C57.4256 0.388098 58.2256 -0.151904 59.0456 0.0380957C59.8656 0.218096 60.3856 1.0481 60.2056 1.8881L51.4256 43.0981C51.2756 43.8281 50.6456 44.3281 49.9456 44.3281H10.3056C9.55561 44.3281 8.92561 43.7681 8.80561 43.0381L0.0356149 1.89808C-0.144385 1.05808 0.375619 0.228075 1.19562 0.0480749C2.01562 -0.131925 2.82561 0.398077 2.99561 1.23808L11.5156 41.2081H48.7156L57.2456 1.2281Z" fill="white"/>
<path fill-rule="evenodd" clip-rule="evenodd" d="M3.28564 10.8581C3.72564 10.8581 4.62565 9.83805 5.51565 8.81805C6.85565 7.27805 8.20564 5.74805 9.99564 5.74805C11.7856 5.74805 13.1356 7.28805 14.4756 8.81805C15.3656 9.83805 16.2557 10.8581 16.7057 10.8581C17.1457 10.8581 18.0456 9.83805 18.9356 8.81805C20.2756 7.27805 21.6256 5.74805 23.4156 5.74805C25.2056 5.74805 26.5557 7.28805 27.8957 8.81805C28.7857 9.83805 29.6756 10.8581 30.1256 10.8581C30.5656 10.8581 31.4656 9.83805 32.3556 8.81805C33.7056 7.27805 35.0456 5.74805 36.8356 5.74805C38.6256 5.74805 39.9757 7.28805 41.3157 8.81805C42.2057 9.83805 43.0956 10.8581 43.5456 10.8581C43.9856 10.8581 44.8856 9.83805 45.7756 8.81805C47.1256 7.27805 48.4656 5.74805 50.2556 5.74805C52.0456 5.74805 53.3956 7.28805 54.7356 8.81805C55.6256 9.83805 56.5156 10.8581 56.9656 10.8581V13.9781C55.1756 13.9781 53.8256 12.4381 52.4856 10.9081C51.5956 9.88805 50.7056 8.86804 50.2556 8.86804C49.8056 8.86804 48.9156 9.88805 48.0256 10.9081C46.6856 12.4381 45.3356 13.9781 43.5456 13.9781C41.7556 13.9781 40.4057 12.4381 39.0657 10.9081C38.1757 9.88805 37.2856 8.86804 36.8356 8.86804C36.3856 8.86804 35.4956 9.88805 34.6056 10.9081C33.2556 12.4381 31.9156 13.9781 30.1256 13.9781C28.3356 13.9781 26.9857 12.4381 25.6457 10.9081C24.7557 9.88805 23.8656 8.86804 23.4156 8.86804C22.9756 8.86804 22.0756 9.88805 21.1856 10.9081C19.8456 12.4381 18.4957 13.9781 16.7057 13.9781C14.9157 13.9781 13.5656 12.4381 12.2256 10.9081C11.3356 9.88805 10.4456 8.86804 9.99564 8.86804C9.55564 8.86804 8.65565 9.88804 7.76565 10.898C6.42565 12.438 5.07564 13.968 3.28564 13.968V10.8581Z" fill="white"/>
<path fill-rule="evenodd" clip-rule="evenodd" d="M10.9258 52.2379C10.0858 52.2379 9.40576 51.5379 9.40576 50.6779C9.40576 49.8179 10.0858 49.1179 10.9258 49.1179H50.2358C51.0758 49.1179 51.7558 49.8179 51.7558 50.6779C51.7558 51.5379 51.0758 52.2379 50.2358 52.2379H10.9258Z" fill="white"/>
<path fill-rule="evenodd" clip-rule="evenodd" d="M44.056 16.6381C44.776 16.6381 45.4261 16.9381 45.8961 17.4181C46.3661 17.8981 46.6561 18.568 46.6561 19.308C46.6561 20.048 46.3661 20.7181 45.8961 21.1981C45.4261 21.6781 44.776 21.9781 44.056 21.9781C43.336 21.9781 42.686 21.6781 42.216 21.1981C41.746 20.7181 41.4561 20.048 41.4561 19.308C41.4561 18.568 41.746 17.9081 42.216 17.4181C42.686 16.9381 43.336 16.6381 44.056 16.6381ZM45.1761 18.148C44.8861 17.858 44.4961 17.6681 44.0461 17.6681C43.6061 17.6681 43.206 17.848 42.916 18.148C42.626 18.438 42.446 18.848 42.446 19.308C42.446 19.758 42.626 20.168 42.916 20.468C43.206 20.758 43.6061 20.9481 44.0461 20.9481C44.4861 20.9481 44.8861 20.768 45.1761 20.468C45.4661 20.178 45.6461 19.768 45.6461 19.308C45.6461 18.858 45.4661 18.448 45.1761 18.148Z" fill="white"/>
<path d="M21.0806 32.1636H21.2954C22.0832 32.1636 22.7743 32.0741 23.3687 31.895C23.9631 31.7088 24.4608 31.4331 24.8618 31.0679C25.27 30.6955 25.578 30.2336 25.7856 29.6821C25.9933 29.1235 26.0972 28.4647 26.0972 27.7056V24.6118C26.0972 24.0747 26.047 23.6092 25.9468 23.2153C25.8537 22.8143 25.714 22.4813 25.5278 22.2163C25.3416 21.9513 25.1232 21.7544 24.8726 21.6255C24.6219 21.4966 24.3462 21.4321 24.0454 21.4321C23.7303 21.4321 23.451 21.5145 23.2075 21.6792C22.9712 21.8439 22.7671 22.0659 22.5952 22.3452C22.4233 22.6245 22.2944 22.9396 22.2085 23.2905C22.1226 23.6414 22.0796 23.9995 22.0796 24.3647C22.0796 24.7586 22.1226 25.1274 22.2085 25.4712C22.3016 25.8149 22.4341 26.1157 22.606 26.3735C22.7778 26.6313 22.9963 26.8354 23.2612 26.9858C23.5262 27.1291 23.8341 27.2007 24.1851 27.2007C24.536 27.2007 24.8403 27.1362 25.0981 27.0073C25.3631 26.8784 25.5851 26.7065 25.7642 26.4917C25.9504 26.2769 26.09 26.0441 26.1831 25.7935C26.2762 25.5356 26.3228 25.2814 26.3228 25.0308L27.354 25.7183C27.354 26.1981 27.2466 26.6707 27.0317 27.1362C26.8241 27.6017 26.534 28.0243 26.1616 28.4038C25.7892 28.7834 25.356 29.0877 24.8618 29.3169C24.3748 29.5389 23.8556 29.6499 23.3042 29.6499C22.5881 29.6499 21.9435 29.521 21.3706 29.2632C20.8049 29.0054 20.325 28.6437 19.9312 28.1782C19.5373 27.7056 19.2365 27.147 19.0288 26.5024C18.8211 25.8579 18.7173 25.1489 18.7173 24.3755C18.7173 23.6164 18.8462 22.9038 19.104 22.2378C19.3618 21.5646 19.7271 20.9738 20.1997 20.4653C20.6724 19.9569 21.2345 19.5558 21.8862 19.2622C22.5451 18.9686 23.272 18.8218 24.0669 18.8218C24.8475 18.8218 25.5636 18.9722 26.2153 19.2729C26.867 19.5666 27.4364 19.9891 27.9233 20.5405C28.4103 21.092 28.7863 21.7616 29.0513 22.5493C29.3234 23.3371 29.4595 24.2251 29.4595 25.2134V26.3735C29.4595 27.4334 29.3377 28.4074 29.0942 29.2954C28.8507 30.1834 28.4927 30.9712 28.02 31.6587C27.5545 32.3462 26.9888 32.9299 26.3228 33.4097C25.6639 33.8895 24.9155 34.2547 24.0776 34.5054C23.2469 34.7489 22.3374 34.8706 21.3491 34.8706H21.0806V32.1636ZM34.5405 27.6411L31.8765 27.0073L32.7896 19.0474H41.7485V21.7007H35.5396L35.1636 24.9985C35.3569 24.884 35.6613 24.7586 36.0767 24.6226C36.492 24.4793 36.9575 24.4077 37.4731 24.4077C38.2394 24.4077 38.9198 24.5259 39.5142 24.7622C40.1086 24.9985 40.6099 25.3423 41.0181 25.7935C41.4334 26.2375 41.745 26.7853 41.9526 27.437C42.1675 28.0887 42.2749 28.8299 42.2749 29.6606C42.2749 30.3481 42.1675 31.007 41.9526 31.6372C41.7378 32.2603 41.4084 32.8188 40.9644 33.313C40.5275 33.8 39.9725 34.1867 39.2993 34.4731C38.6261 34.7596 37.8348 34.9028 36.9253 34.9028C36.2378 34.9028 35.5718 34.799 34.9272 34.5913C34.2827 34.3836 33.7026 34.0828 33.187 33.689C32.6785 33.2879 32.2739 32.8009 31.9731 32.228C31.6795 31.6551 31.5291 31.0106 31.522 30.2944H34.8735C34.9093 30.7098 35.0132 31.0679 35.1851 31.3687C35.3569 31.6623 35.5897 31.8914 35.8833 32.0562C36.1769 32.2137 36.5171 32.2925 36.9038 32.2925C37.2762 32.2925 37.5913 32.2209 37.8491 32.0776C38.1069 31.9272 38.311 31.7231 38.4614 31.4653C38.619 31.2075 38.7336 30.9067 38.8052 30.563C38.8768 30.2192 38.9126 29.8504 38.9126 29.4565C38.9126 29.0483 38.866 28.6831 38.7729 28.3608C38.6799 28.0314 38.5366 27.7521 38.3433 27.5229C38.1499 27.2866 37.9028 27.1076 37.6021 26.9858C37.3084 26.8569 36.9539 26.7925 36.5386 26.7925C35.9943 26.7925 35.5682 26.882 35.2603 27.061C34.9523 27.2401 34.7124 27.4334 34.5405 27.6411Z" fill="white"/>
</svg>
