<svg width="61" height="45" viewBox="0 0 61 45" fill="none" xmlns="http://www.w3.org/2000/svg">
<path fill-rule="evenodd" clip-rule="evenodd" d="M57.8304 1.51765C58.0104 0.677649 58.8204 0.137646 59.6404 0.327646C60.4604 0.507646 60.9803 1.33765 60.8003 2.17765L52.0204 43.3876C51.8704 44.1176 51.2404 44.6177 50.5404 44.6177H10.9004C10.1504 44.6177 9.53036 44.0576 9.40036 43.3276L0.63034 2.18763C0.45034 1.34763 0.970374 0.517626 1.79037 0.337626C2.61037 0.157626 3.42036 0.687628 3.59036 1.52763L12.1103 41.4976H49.3103L57.8304 1.51765Z" fill="white"/>
<path fill-rule="evenodd" clip-rule="evenodd" d="M3.87012 11.1476C4.32012 11.1476 5.21016 10.1276 6.10016 9.1076C7.45016 7.56761 8.79014 6.0376 10.5801 6.0376C12.3701 6.0376 13.7201 7.57761 15.0701 9.1076C15.9601 10.1276 16.8501 11.1476 17.3001 11.1476C17.7501 11.1476 18.6402 10.1276 19.5302 9.1076C20.8702 7.56761 22.2201 6.0376 24.0101 6.0376C25.8001 6.0376 27.1501 7.57761 28.4901 9.1076C29.3801 10.1276 30.2802 11.1476 30.7202 11.1476C31.1602 11.1476 32.0601 10.1276 32.9501 9.1076C34.2901 7.56761 35.6401 6.0376 37.4301 6.0376C39.2201 6.0376 40.5702 7.57761 41.9102 9.1076C42.8002 10.1276 43.6901 11.1476 44.1401 11.1476C44.5801 11.1476 45.4801 10.1276 46.3701 9.1076C47.7101 7.56761 49.0602 6.0376 50.8502 6.0376C52.6402 6.0376 53.9901 7.57761 55.3301 9.1076C56.2201 10.1276 57.1101 11.1476 57.5601 11.1476V14.2676C55.7701 14.2676 54.4201 12.7276 53.0801 11.1976C52.1901 10.1776 51.2902 9.15759 50.8502 9.15759C50.4102 9.15759 49.5101 10.1776 48.6201 11.1976C47.2701 12.7276 45.9301 14.2676 44.1401 14.2676C42.3501 14.2676 41.0002 12.7276 39.6602 11.1976C38.7702 10.1776 37.8801 9.15759 37.4301 9.15759C36.9901 9.15759 36.0901 10.1776 35.2001 11.1976C33.8601 12.7276 32.5102 14.2676 30.7202 14.2676C28.9302 14.2676 27.5801 12.7276 26.2401 11.1976C25.3501 10.1776 24.4601 9.15759 24.0101 9.15759C23.5701 9.15759 22.6702 10.1776 21.7802 11.1976C20.4302 12.7276 19.0901 14.2676 17.3001 14.2676C15.5101 14.2676 14.1601 12.7276 12.8201 11.1976C11.9301 10.1776 11.0401 9.15759 10.5901 9.15759C10.1501 9.15759 9.25011 10.1776 8.36011 11.1876C7.02011 12.7276 5.67012 14.2576 3.87012 14.2576V11.1476Z" fill="white"/>
<path fill-rule="evenodd" clip-rule="evenodd" d="M18.9704 33.4875C21.2604 33.4875 23.1304 31.5675 23.1304 29.2275C23.1304 26.8775 21.2604 24.9575 18.9704 24.9575C16.6804 24.9575 14.8204 26.8775 14.8204 29.2275C14.8104 31.5675 16.6804 33.4875 18.9704 33.4875Z" fill="white"/>
<path fill-rule="evenodd" clip-rule="evenodd" d="M30.7206 33.4875C33.0106 33.4875 34.8705 31.5675 34.8705 29.2275C34.8705 26.8775 33.0006 24.9575 30.7206 24.9575C28.4306 24.9575 26.5605 26.8775 26.5605 29.2275C26.5605 31.5675 28.4306 33.4875 30.7206 33.4875Z" fill="white"/>
<path fill-rule="evenodd" clip-rule="evenodd" d="M42.4704 33.4875C44.7604 33.4875 46.6304 31.5675 46.6304 29.2275C46.6304 26.8775 44.7604 24.9575 42.4704 24.9575C40.1804 24.9575 38.3204 26.8775 38.3204 29.2275C38.3104 31.5675 40.1804 33.4875 42.4704 33.4875Z" fill="white"/>
</svg>
