<svg width="61" height="45" viewBox="0 0 61 45" fill="none" xmlns="http://www.w3.org/2000/svg">
<path fill-rule="evenodd" clip-rule="evenodd" d="M57.75 1.51765C57.93 0.677649 58.73 0.137646 59.55 0.327646C60.37 0.507646 60.89 1.33765 60.71 2.17765L51.93 43.3876C51.78 44.1176 51.15 44.6177 50.45 44.6177H10.81C10.06 44.6177 9.44 44.0576 9.31 43.3276L0.540009 2.18763C0.360009 1.34763 0.880013 0.517626 1.70001 0.337626C2.52001 0.157626 3.33001 0.687628 3.51001 1.52763L12.03 41.4976H49.23L57.75 1.51765Z" fill="white"/>
<path fill-rule="evenodd" clip-rule="evenodd" d="M3.79004 11.1476C4.23004 11.1476 5.13005 10.1276 6.02005 9.1076C7.36005 7.56761 8.71003 6.0376 10.5 6.0376C12.29 6.0376 13.6401 7.57761 14.9901 9.1076C15.8801 10.1276 16.77 11.1476 17.22 11.1476C17.66 11.1476 18.56 10.1276 19.45 9.1076C20.79 7.56761 22.1401 6.0376 23.9301 6.0376C25.7201 6.0376 27.07 7.57761 28.41 9.1076C29.3 10.1276 30.19 11.1476 30.64 11.1476C31.08 11.1476 31.9801 10.1276 32.8701 9.1076C34.2101 7.56761 35.56 6.0376 37.35 6.0376C39.14 6.0376 40.49 7.57761 41.83 9.1076C42.72 10.1276 43.61 11.1476 44.06 11.1476C44.5 11.1476 45.4 10.1276 46.29 9.1076C47.64 7.56761 48.9801 6.0376 50.7701 6.0376C52.5601 6.0376 53.91 7.57761 55.25 9.1076C56.14 10.1276 57.03 11.1476 57.48 11.1476V14.2676C55.69 14.2676 54.34 12.7276 53 11.1976C52.11 10.1776 51.2201 9.15759 50.7701 9.15759C50.3201 9.15759 49.43 10.1776 48.54 11.1976C47.2 12.7276 45.85 14.2676 44.06 14.2676C42.27 14.2676 40.92 12.7276 39.58 11.1976C38.69 10.1776 37.8 9.15759 37.35 9.15759C36.91 9.15759 36.0101 10.1776 35.1201 11.1976C33.7701 12.7276 32.43 14.2676 30.64 14.2676C28.85 14.2676 27.5 12.7276 26.16 11.1976C25.27 10.1776 24.3801 9.15759 23.9301 9.15759C23.4901 9.15759 22.59 10.1776 21.7 11.1976C20.35 12.7276 19.01 14.2676 17.22 14.2676C15.43 14.2676 14.0801 12.7276 12.7401 11.1976C11.8501 10.1776 10.96 9.15759 10.51 9.15759C10.07 9.15759 9.18003 10.1776 8.28003 11.1876C6.94003 12.7276 5.59005 14.2576 3.80005 14.2576V11.1476H3.79004Z" fill="white"/>
<path fill-rule="evenodd" clip-rule="evenodd" d="M30.6297 33.4875C32.9197 33.4875 34.7797 31.5675 34.7797 29.2275C34.7797 26.8775 32.9097 24.9575 30.6297 24.9575C28.3397 24.9575 26.4697 26.8775 26.4697 29.2275C26.4797 31.5675 28.3397 33.4875 30.6297 33.4875Z" fill="white"/>
</svg>
