<svg width="61" height="45" viewBox="0 0 61 45" fill="none" xmlns="http://www.w3.org/2000/svg">
<path fill-rule="evenodd" clip-rule="evenodd" d="M3.83008 11.1476C4.27008 11.1476 5.17006 10.1276 6.06006 9.1076C7.40006 7.56761 8.75007 6.0376 10.5401 6.0376C12.3301 6.0376 13.6801 7.57761 15.0201 9.1076C15.9101 10.1276 16.8001 11.1476 17.2501 11.1476C17.7001 11.1476 18.5901 10.1276 19.4801 9.1076C20.8201 7.56761 22.1701 6.0376 23.9601 6.0376C25.7501 6.0376 27.1001 7.57761 28.4401 9.1076C29.3301 10.1276 30.2201 11.1476 30.6701 11.1476C31.1201 11.1476 32.0101 10.1276 32.9001 9.1076C34.2501 7.56761 35.5901 6.0376 37.3801 6.0376C39.1701 6.0376 40.5201 7.57761 41.8601 9.1076C42.7501 10.1276 43.6401 11.1476 44.0901 11.1476C44.5301 11.1476 45.4301 10.1276 46.3201 9.1076C47.6601 7.56761 49.0101 6.0376 50.8001 6.0376C52.5901 6.0376 53.9401 7.57761 55.2801 9.1076C56.1701 10.1276 57.0601 11.1476 57.5101 11.1476V14.2676C55.7201 14.2676 54.3701 12.7276 53.0301 11.1976C52.1401 10.1776 51.2501 9.15759 50.8001 9.15759C50.3601 9.15759 49.4601 10.1776 48.5701 11.1976C47.2301 12.7276 45.8801 14.2676 44.0901 14.2676C42.3001 14.2676 40.9501 12.7276 39.6101 11.1976C38.7201 10.1776 37.8301 9.15759 37.3801 9.15759C36.9401 9.15759 36.0401 10.1776 35.1501 11.1976C33.8101 12.7276 32.4601 14.2676 30.6701 14.2676C28.8801 14.2676 27.5301 12.7276 26.1901 11.1976C25.3001 10.1776 24.4101 9.15759 23.9601 9.15759C23.5201 9.15759 22.6201 10.1776 21.7301 11.1976C20.3901 12.7276 19.0401 14.2676 17.2501 14.2676C15.4601 14.2676 14.1101 12.7276 12.7701 11.1976C11.8801 10.1776 10.9901 9.15759 10.5401 9.15759C10.1001 9.15759 9.20006 10.1776 8.31006 11.1876C6.97006 12.7276 5.62008 14.2576 3.83008 14.2576V11.1476Z" fill="white"/>
<path fill-rule="evenodd" clip-rule="evenodd" d="M57.79 1.51765C57.97 0.677649 58.7701 0.137646 59.5901 0.327646C60.4101 0.507646 60.93 1.33765 60.75 2.17765L51.97 43.3876C51.82 44.1176 51.1901 44.6177 50.4901 44.6177H10.85C10.1 44.6177 9.47004 44.0576 9.35004 43.3276L0.580048 2.18763C0.400048 1.34763 0.920052 0.517626 1.74005 0.337626C2.56005 0.157626 3.37005 0.687628 3.55005 1.52763L12.07 41.4976H49.2701L57.79 1.51765Z" fill="white"/>
<path fill-rule="evenodd" clip-rule="evenodd" d="M24.7999 33.4875C27.0899 33.4875 28.9599 31.5675 28.9599 29.2275C28.9599 26.8775 27.0899 24.9575 24.7999 24.9575C22.5099 24.9575 20.6499 26.8775 20.6499 29.2275C20.6399 31.5675 22.5099 33.4875 24.7999 33.4875Z" fill="white"/>
<path fill-rule="evenodd" clip-rule="evenodd" d="M36.5499 33.4875C38.8399 33.4875 40.7099 31.5675 40.7099 29.2275C40.7099 26.8775 38.8399 24.9575 36.5499 24.9575C34.2599 24.9575 32.3999 26.8775 32.3999 29.2275C32.3999 31.5675 34.2599 33.4875 36.5499 33.4875Z" fill="white"/>
</svg>
