<svg width="69" height="46" viewBox="0 0 69 46" fill="none" xmlns="http://www.w3.org/2000/svg">
<path fill-rule="evenodd" clip-rule="evenodd" d="M61.7002 1.51765C61.8802 0.677649 62.6902 0.137646 63.5002 0.327646C64.3202 0.507646 64.8402 1.33765 64.6602 2.17765L55.8802 43.3876C55.7302 44.1176 55.1002 44.6177 54.4002 44.6177H14.7602C14.0102 44.6177 13.3802 44.0576 13.2602 43.3276L4.4902 2.18763C4.3102 1.34763 4.83021 0.517626 5.65021 0.337626C6.47021 0.157626 7.28021 0.687628 7.46021 1.52763L15.9802 41.4976H53.1802L61.7002 1.51765Z" fill="white"/>
<path fill-rule="evenodd" clip-rule="evenodd" d="M7.74023 11.1476C8.18023 11.1476 9.08021 10.1276 9.97021 9.1076C11.3202 7.56761 12.6602 6.0376 14.4502 6.0376C16.2402 6.0376 17.5902 7.57761 18.9302 9.1076C19.8202 10.1276 20.7102 11.1476 21.1602 11.1476C21.6002 11.1476 22.5002 10.1276 23.3902 9.1076C24.7402 7.56761 26.0802 6.0376 27.8702 6.0376C29.6602 6.0376 31.0102 7.57761 32.3502 9.1076C33.2402 10.1276 34.1302 11.1476 34.5802 11.1476C35.0202 11.1476 35.9202 10.1276 36.8102 9.1076C38.1602 7.56761 39.5002 6.0376 41.2902 6.0376C43.0802 6.0376 44.4302 7.57761 45.7702 9.1076C46.6602 10.1276 47.5502 11.1476 48.0002 11.1476C48.4502 11.1476 49.3402 10.1276 50.2302 9.1076C51.5802 7.56761 52.9202 6.0376 54.7102 6.0376C56.5002 6.0376 57.8502 7.57761 59.1902 9.1076C60.0802 10.1276 60.9702 11.1476 61.4202 11.1476V14.2676C59.6302 14.2676 58.2802 12.7276 56.9402 11.1976C56.0502 10.1776 55.1602 9.15759 54.7102 9.15759C54.2702 9.15759 53.3702 10.1776 52.4802 11.1976C51.1402 12.7276 49.7902 14.2676 48.0002 14.2676C46.2102 14.2676 44.8602 12.7276 43.5202 11.1976C42.6302 10.1776 41.7402 9.15759 41.2902 9.15759C40.8502 9.15759 39.9502 10.1776 39.0602 11.1976C37.7102 12.7276 36.3702 14.2676 34.5802 14.2676C32.7902 14.2676 31.4402 12.7276 30.1002 11.1976C29.2102 10.1776 28.3202 9.15759 27.8702 9.15759C27.4302 9.15759 26.5302 10.1776 25.6402 11.1976C24.2902 12.7276 22.9502 14.2676 21.1602 14.2676C19.3702 14.2676 18.0202 12.7276 16.6802 11.1976C15.7902 10.1776 14.9002 9.15759 14.4502 9.15759C14.0102 9.15759 13.1102 10.1776 12.2202 11.1876C10.8702 12.7276 9.53023 14.2576 7.74023 14.2576V11.1476Z" fill="white"/>
<path fill-rule="evenodd" clip-rule="evenodd" d="M3.77035 44.6776C2.43035 45.3176 1.05035 45.2076 0.700346 44.4276C0.350346 43.6476 1.15035 42.4876 2.49035 41.8476L65.4004 11.7376C66.7404 11.0976 68.1203 11.2076 68.4703 11.9876C68.8303 12.7676 68.0204 13.9176 66.6804 14.5676L3.77035 44.6776Z" fill="white"/>
<path fill-rule="evenodd" clip-rule="evenodd" d="M65.4004 44.6776C66.7404 45.3176 68.1203 45.2076 68.4703 44.4276C68.8203 43.6476 68.0204 42.4876 66.6804 41.8476L3.77035 11.7376C2.43035 11.0976 1.05035 11.2076 0.700346 11.9876C0.350346 12.7676 1.15035 13.9176 2.49035 14.5676L65.4004 44.6776Z" fill="white"/>
</svg>
