<svg width="92" height="61" viewBox="0 0 92 61" fill="none" xmlns="http://www.w3.org/2000/svg">
<path fill-rule="evenodd" clip-rule="evenodd" d="M29.2599 26.9175L22.16 18.8275H3.22998V42.2675H15.7999L24.3799 32.4875L29.2599 26.9175ZM23.96 16.2175L32.4199 25.8675L33.33 26.9075L32.4199 27.9475L26.6299 34.5475L17.6 44.8475L17.15 45.3675H16.48H1.70996H0.199951V43.8075V17.2475V15.6875H1.71997H22.84H23.5099L23.96 16.2175Z" fill="white"/>
<path fill-rule="evenodd" clip-rule="evenodd" d="M75.15 18.8275L61.32 34.5975L68.04 42.2675H88.15V18.8275H75.15ZM58.15 33.5475L73.34 16.2175L73.79 15.6975H74.46H89.66H91.2V17.2575V43.8175V45.3775H89.68H67.38H66.7L66.25 44.8575L58.16 35.6275L57.25 34.5875L58.15 33.5475Z" fill="white"/>
<path fill-rule="evenodd" clip-rule="evenodd" d="M62.81 28.2375L54.56 18.8275H40.44L32.43 27.9675L27.55 33.5275L35.21 42.2675H50.51L58.14 33.5575L62.81 28.2375ZM56.36 16.2175L65.98 27.1875L66.9 28.2275L65.98 29.2675L60.41 35.6275L52.32 44.8575L51.87 45.3775H51.2H34.55H33.88L33.43 44.8575L24.4 34.5575L23.49 33.5175L24.4 32.4775L30.19 25.8775L38.65 16.2275L39.1 15.7075H39.77H55.24H55.91L56.36 16.2175Z" fill="white"/>
<path fill-rule="evenodd" clip-rule="evenodd" d="M23.8399 59.5875C23.3099 60.2475 22.3599 60.3476 21.7099 59.7976C21.0599 59.2576 20.9699 58.2775 21.4999 57.6075L66.5299 1.47754C67.0599 0.817544 68.0199 0.717553 68.6599 1.26755C69.3099 1.80755 69.3999 2.78756 68.8699 3.45756L23.8399 59.5875Z" fill="white"/>
<path fill-rule="evenodd" clip-rule="evenodd" d="M68.8699 57.6176C69.3999 58.2776 69.3099 59.2575 68.6599 59.8075C68.0099 60.3575 67.0599 60.2576 66.5299 59.5976L21.4999 3.46755C20.9699 2.80755 21.0599 1.82755 21.7099 1.27755C22.3499 0.72755 23.3099 0.827572 23.8399 1.48757L68.8699 57.6176Z" fill="white"/>
</svg>
