<svg width="61" height="59" viewBox="0 0 61 59" fill="none" xmlns="http://www.w3.org/2000/svg">
<path fill-rule="evenodd" clip-rule="evenodd" d="M57.8799 15.5176C58.0599 14.6776 58.8698 14.1376 59.6798 14.3276C60.4998 14.5076 61.0199 15.3377 60.8399 16.1777L52.0598 57.3876C51.9098 58.1176 51.2799 58.6177 50.5699 58.6177H10.9298C10.1798 58.6177 9.55984 58.0576 9.42984 57.3276L0.659884 16.1876C0.479884 15.3476 0.999857 14.5176 1.81986 14.3376C2.63986 14.1576 3.44984 14.6876 3.61984 15.5276L12.1399 55.4976H49.3299L57.8799 15.5176Z" fill="white"/>
<path fill-rule="evenodd" clip-rule="evenodd" d="M3.90991 25.1476C4.34991 25.1476 5.24989 24.1276 6.13989 23.1076C7.47989 21.5676 8.82987 20.0376 10.6199 20.0376C12.4099 20.0376 13.7599 21.5776 15.0999 23.1076C15.9899 24.1276 16.8799 25.1476 17.3299 25.1476C17.7699 25.1476 18.6699 24.1276 19.5599 23.1076C20.9099 21.5676 22.2499 20.0376 24.0399 20.0376C25.8299 20.0376 27.1799 21.5776 28.5199 23.1076C29.4099 24.1276 30.3099 25.1476 30.7499 25.1476C31.1899 25.1476 32.0899 24.1276 32.9799 23.1076C34.3199 21.5676 35.6699 20.0376 37.4599 20.0376C39.2499 20.0376 40.5999 21.5776 41.9399 23.1076C42.8299 24.1276 43.7199 25.1476 44.1699 25.1476C44.6099 25.1476 45.5099 24.1276 46.3999 23.1076C47.7499 21.5676 49.0899 20.0376 50.8899 20.0376C52.6799 20.0376 54.0299 21.5776 55.3699 23.1076C56.2599 24.1276 57.1499 25.1476 57.5999 25.1476V28.2676C55.8099 28.2676 54.4599 26.7276 53.1199 25.1976C52.2299 24.1776 51.3399 23.1576 50.8899 23.1576C50.4399 23.1576 49.5499 24.1776 48.6599 25.1976C47.3199 26.7276 45.9699 28.2676 44.1799 28.2676C42.3899 28.2676 41.0399 26.7276 39.6899 25.1976C38.7999 24.1776 37.9099 23.1576 37.4599 23.1576C37.0099 23.1576 36.1199 24.1776 35.2299 25.1976C33.8899 26.7276 32.5399 28.2676 30.7499 28.2676C28.9599 28.2676 27.6099 26.7276 26.2699 25.1976C25.3799 24.1776 24.4899 23.1576 24.0399 23.1576C23.5999 23.1576 22.6999 24.1776 21.8099 25.1976C20.4699 26.7276 19.1199 28.2676 17.3299 28.2676C15.5399 28.2676 14.1899 26.7276 12.8499 25.1976C11.9599 24.1776 11.0699 23.1576 10.6199 23.1576C10.1699 23.1576 9.27989 24.1776 8.38989 25.1876C7.04989 26.7276 5.69991 28.2576 3.90991 28.2576V25.1476Z" fill="white"/>
<path fill-rule="evenodd" clip-rule="evenodd" d="M23.6199 14.6476L23.1499 15.3276L19.8199 20.1376L13.6999 28.9876C13.0099 29.9876 13.2399 31.3976 14.2099 32.1076C15.1899 32.8176 16.5499 32.5876 17.2499 31.5776L23.3699 22.7276L24.0599 23.2276L15.8199 35.1376C15.1299 36.1376 15.3599 37.5376 16.3299 38.2576C17.2999 38.9676 18.6699 38.7376 19.3699 37.7276L27.6099 25.8176L28.29 26.3176L19.2499 39.3776C18.5599 40.3776 18.7899 41.7876 19.7599 42.4976C20.7299 43.2076 22.0999 42.9776 22.7999 41.9676L31.84 28.9076L32.5199 29.4076L24.28 41.3176C23.59 42.3176 23.82 43.7176 24.79 44.4376C25.77 45.1476 27.1299 44.9076 27.8299 43.9076L36.0699 31.9976L39.3999 27.1876L40.2599 27.8076L36.6799 32.9876C36.1399 33.7676 36.5 34.9876 37.47 35.6976C38.45 36.4076 39.69 36.3476 40.23 35.5676L48.2399 23.9976C50.0699 21.3476 50.2499 18.0776 48.7099 15.2376L47.9299 13.7976C47.4799 12.9676 47.5099 11.9976 48.0699 11.2476L49.04 9.93758C49.28 9.61758 49.3699 9.24757 49.3099 8.83757C49.2499 8.43757 49.06 8.10758 48.73 7.87758L38.2999 0.267598C37.6699 -0.192402 36.8 -0.0424256 36.34 0.587574L33.79 4.1476C33.46 4.6076 32.9999 4.92759 32.4999 5.06759C30.6299 5.58759 29.1699 6.62758 28.0499 8.24758L25.84 11.4476L23.6199 14.6476Z" fill="white"/>
</svg>
