<svg width="21" height="17" viewBox="0 0 21 17" fill="none" xmlns="http://www.w3.org/2000/svg">
<path d="M10.3741 1L13.2707 5.93691L19.7482 6.73344L15.0611 10.5741L16.1673 16L10.3741 13.4369L4.5809 16L5.68704 10.5741L1 6.73344L7.47749 5.93691L10.3741 1Z" stroke="white" stroke-linecap="round" stroke-linejoin="round"/>
<mask id="path-2-inside-1_663_140" fill="white">
<path d="M4.629 16L10.5 13.5V9V5V1L9.03225 3.46845L7.5645 5.93691L1 6.73344L5.75 10.5741L4.629 16Z"/>
</mask>
<path d="M4.629 16L10.5 13.5V9V5V1L9.03225 3.46845L7.5645 5.93691L1 6.73344L5.75 10.5741L4.629 16Z" fill="white"/>
<path d="M10.5 1H11.5C11.5 0.54978 11.1991 0.155072 10.765 0.0357561C10.3309 -0.0835595 9.87057 0.101941 9.64047 0.488919L10.5 1ZM10.5 13.5L10.8918 14.4201C11.2606 14.263 11.5 13.9009 11.5 13.5H10.5ZM4.629 16L3.64968 15.7977C3.5744 16.1621 3.70765 16.5381 3.99557 16.7738C4.28348 17.0095 4.67844 17.0658 5.02078 16.9201L4.629 16ZM5.75 10.5741L6.72932 10.7765C6.80504 10.41 6.66977 10.0318 6.37875 9.79652L5.75 10.5741ZM1 6.73344L0.879545 5.74072C0.480789 5.7891 0.149684 6.07139 0.0388333 6.45747C-0.0720178 6.84355 0.0589012 7.25849 0.371251 7.51105L1 6.73344ZM7.5645 5.93691L7.68496 6.92963C7.99264 6.89229 8.26563 6.7144 8.42403 6.44799L7.5645 5.93691ZM9.03225 3.46845L8.17272 2.95737L8.17272 2.95737L9.03225 3.46845ZM10.1082 12.5799L4.23722 15.0799L5.02078 16.9201L10.8918 14.4201L10.1082 12.5799ZM5.60832 16.2023L6.72932 10.7765L4.77068 10.3718L3.64968 15.7977L5.60832 16.2023ZM6.37875 9.79652L1.62875 5.95583L0.371251 7.51105L5.12125 11.3517L6.37875 9.79652ZM1.12046 7.72616L7.68496 6.92963L7.44404 4.94419L0.879545 5.74072L1.12046 7.72616ZM8.42403 6.44799L9.89178 3.97953L8.17272 2.95737L6.70497 5.42583L8.42403 6.44799ZM9.89178 3.97954L11.3595 1.51108L9.64047 0.488919L8.17272 2.95737L9.89178 3.97954ZM11.5 13.5V9H9.5V13.5H11.5ZM11.5 9V5H9.5V9H11.5ZM11.5 5V1H9.5V5H11.5Z" fill="white" mask="url(#path-2-inside-1_663_140)"/>
</svg>
