<svg width="51" height="52" viewBox="0 0 51 52" fill="none" xmlns="http://www.w3.org/2000/svg">
<path fill-rule="evenodd" clip-rule="evenodd" d="M2.38034 0.747559H48.8404H50.3604V2.30756V49.9976V51.5576H48.8404H2.38034H0.860352V49.9976V2.30756V0.747559H2.38034ZM47.3203 3.86755H3.90036V48.4376H47.3203V3.86755Z" fill="white"/>
<path fill-rule="evenodd" clip-rule="evenodd" d="M25.6104 0.747559C32.4404 0.747559 38.6304 3.58756 43.1104 8.18756C47.5904 12.7876 50.3604 19.1375 50.3604 26.1475C50.3604 33.1575 47.5904 39.5175 43.1104 44.1075C38.6304 48.7075 32.4404 51.5475 25.6104 51.5475C18.7804 51.5475 12.5904 48.7075 8.11035 44.1075C3.63035 39.5075 0.860352 33.1575 0.860352 26.1475C0.860352 19.1375 3.63035 12.7776 8.11035 8.18756C12.5904 3.58756 18.7704 0.747559 25.6104 0.747559ZM40.9604 10.3975C37.0304 6.36752 31.6004 3.86755 25.6104 3.86755C19.6204 3.86755 14.1903 6.35752 10.2603 10.3975C6.33035 14.4275 3.90036 19.9975 3.90036 26.1575C3.90036 32.3175 6.33035 37.8875 10.2603 41.9175C14.1903 45.9475 19.6204 48.4475 25.6104 48.4475C31.6104 48.4475 37.0304 45.9475 40.9604 41.9175C44.8904 37.8875 47.3203 32.3175 47.3203 26.1575C47.3203 19.9975 44.8904 14.4275 40.9604 10.3975Z" fill="white"/>
</svg>
