<svg width="50" height="52" viewBox="0 0 50 52" fill="none" xmlns="http://www.w3.org/2000/svg">
<path fill-rule="evenodd" clip-rule="evenodd" d="M1.85007 0.747559H48.3101H49.8301V2.30756V49.9976V51.5576H48.3101H1.85007H0.330078V49.9976V2.30756V0.747559H1.85007ZM46.7901 3.86755H3.37009V48.4376H46.7901V3.86755Z" fill="white"/>
<path fill-rule="evenodd" clip-rule="evenodd" d="M2.92001 1.20752L49.38 48.8975L47.23 51.0975L0.77002 3.40753L2.92001 1.20752Z" fill="white"/>
<path fill-rule="evenodd" clip-rule="evenodd" d="M0.77002 48.8975L47.23 1.20752L49.38 3.40753L2.92001 51.0975L0.77002 48.8975Z" fill="white"/>
<path fill-rule="evenodd" clip-rule="evenodd" d="M25.0801 0.747559C31.9101 0.747559 38.1001 3.58756 42.5801 8.18756C47.0601 12.7876 49.8301 19.1375 49.8301 26.1475C49.8301 33.1575 47.0601 39.5175 42.5801 44.1075C38.1001 48.7075 31.9101 51.5475 25.0801 51.5475C18.2501 51.5475 12.0601 48.7075 7.58008 44.1075C3.10008 39.5075 0.330078 33.1575 0.330078 26.1475C0.330078 19.1375 3.10008 12.7776 7.58008 8.18756C12.0501 3.58756 18.2401 0.747559 25.0801 0.747559ZM40.4301 10.3975C36.5001 6.36752 31.0701 3.86755 25.0801 3.86755C19.0801 3.86755 13.6601 6.35752 9.73007 10.3975C5.80007 14.4275 3.37009 19.9975 3.37009 26.1575C3.37009 32.3175 5.80007 37.8875 9.73007 41.9175C13.6601 45.9475 19.0901 48.4475 25.0801 48.4475C31.0801 48.4475 36.5001 45.9475 40.4301 41.9175C44.3601 37.8875 46.7901 32.3175 46.7901 26.1575C46.7901 19.9975 44.3601 14.4275 40.4301 10.3975Z" fill="white"/>
</svg>
