<svg width="51" height="52" viewBox="0 0 51 52" fill="none" xmlns="http://www.w3.org/2000/svg">
<path fill-rule="evenodd" clip-rule="evenodd" d="M25.5396 30.4174C27.8296 30.4174 29.6996 28.5074 29.6996 26.1474C29.6996 23.7974 27.8296 21.8774 25.5396 21.8774C23.2496 21.8774 21.3896 23.7974 21.3896 26.1474C21.3896 28.5074 23.2596 30.4174 25.5396 30.4174Z" fill="white"/>
<path fill-rule="evenodd" clip-rule="evenodd" d="M2.31003 0.747559H48.7701H50.2901V2.30756V49.9976V51.5576H48.7701H2.31003H0.790039V49.9976V2.30756V0.747559H2.31003ZM47.25 3.86755H3.83005V48.4376H47.25V3.86755Z" fill="white"/>
<path fill-rule="evenodd" clip-rule="evenodd" d="M25.54 0.747559C32.37 0.747559 38.5601 3.58756 43.0401 8.18756C47.5201 12.7876 50.2901 19.1375 50.2901 26.1475C50.2901 33.1575 47.5201 39.5175 43.0401 44.1075C38.5601 48.7075 32.37 51.5475 25.54 51.5475C18.71 51.5475 12.52 48.7075 8.04004 44.1075C3.56004 39.5075 0.790039 33.1575 0.790039 26.1475C0.790039 19.1375 3.56004 12.7776 8.04004 8.18756C12.52 3.58756 18.71 0.747559 25.54 0.747559ZM40.89 10.3975C36.96 6.36752 31.53 3.86755 25.54 3.86755C19.54 3.86755 14.12 6.35752 10.19 10.3975C6.26003 14.4275 3.83005 19.9975 3.83005 26.1575C3.83005 32.3175 6.26003 37.8875 10.19 41.9175C14.12 45.9475 19.54 48.4475 25.54 48.4475C31.54 48.4475 36.96 45.9475 40.89 41.9175C44.82 37.8875 47.25 32.3175 47.25 26.1575C47.25 19.9975 44.82 14.4275 40.89 10.3975Z" fill="white"/>
</svg>
